<?xml version="1.0" encoding="utf-8"?>
<!-- Generator: Adobe Illustrator 15.1.0, SVG Export Plug-In . SVG Version: 6.00 Build 0)  -->
<!DOCTYPE svg PUBLIC "-//W3C//DTD SVG 1.1//EN" "http://www.w3.org/Graphics/SVG/1.1/DTD/svg11.dtd">
<svg version="1.1" id="Layer_1" xmlns="http://www.w3.org/2000/svg" xmlns:xlink="http://www.w3.org/1999/xlink" x="0px" y="0px"
	 width="661.636px" height="389.877px" viewBox="0 0 661.636 389.877" enable-background="new 0 0 661.636 389.877"
	 xml:space="preserve">
<rect x="1.509" y="-1.405" fill="#F5EEE3" width="656.413" height="389.878"/>
<g>
	<path fill="none" d="M398.746,183.161c0-3.745-2.198-6.346-8.222-6.346c-6.512,0-8.222,3.091-8.222,8.384v2.601
		c0.407,0.165,4.313,1.141,7.246,1.141C396.388,188.94,398.746,186.825,398.746,183.161z"/>
	<path fill="none" d="M349.737,176.815c-4.886,0-7.816,1.378-7.816,1.378v21.494c0,4.313,4.886,7.326,9.771,7.326
		c4.476,0,7.812-2.44,7.812-8.142v-13.838C359.504,179.498,357.309,176.815,349.737,176.815z"/>
	<path fill="none" d="M302.436,160.857c-12.131,0-14.49,4.804-14.49,12.862v20.106c0,8.059,2.359,12.862,14.49,12.862
		c12.371,0,14.734-4.804,14.734-12.862v-20.106C317.17,165.661,314.807,160.857,302.436,160.857z"/>
	<path fill="#808080" d="M302.517,154.016c-16.038,0-23.444,7.006-23.444,18.646v22.222c0,11.645,7.407,18.641,23.444,18.641
		c16.037,0,23.524-6.996,23.524-18.641v-22.222C326.042,161.022,318.554,154.016,302.517,154.016z M317.17,193.826
		c0,8.059-2.363,12.862-14.734,12.862c-12.131,0-14.49-4.804-14.49-12.862v-20.106c0-8.059,2.359-12.862,14.49-12.862
		c12.371,0,14.734,4.804,14.734,12.862V193.826z"/>
	<path fill="#808080" d="M350.307,170.299c-4.15,0-7.733,1.465-11.56,1.465c-1.708,0-3.5-0.408-5.373-1.301v56.656
		c0,5.783,8.304,5.535,8.547,5.535v-5.371v-11.557c0-3.746-0.733-6.026-0.733-6.026s3.256,3.823,11.562,3.823
		c8.222,0,15.301-5.046,15.301-13.43v-16.283C368.051,175.184,361.701,170.299,350.307,170.299z M359.504,198.872
		c0,5.701-3.336,8.142-7.812,8.142c-4.886,0-9.771-3.013-9.771-7.326v-21.494c0,0,2.931-1.378,7.816-1.378
		c7.571,0,9.767,2.683,9.767,8.219V198.872z"/>
	<path fill="#808080" d="M391.909,206.606c-6.839,0-9.606-2.688-9.606-7.977v-4.479c2.2,1.223,5.618,1.713,8.302,1.713
		c12.375,0,16.69-5.944,16.69-12.703c0-7.733-5.618-12.861-16.608-12.861c-10.989,0-16.931,5.128-16.931,13.677v15.871
		c0,8.549,6.837,13.677,18.153,13.677c8.71,0,15.873-3.415,15.873-9.199c0-1.872-0.732-3.905-2.28-6.186
		C405.422,203.432,399.726,206.606,391.909,206.606z M382.303,185.199c0-5.293,1.71-8.384,8.222-8.384
		c6.023,0,8.222,2.601,8.222,6.346c0,3.664-2.358,5.779-9.197,5.779c-2.933,0-6.839-0.976-7.246-1.141V185.199z"/>
	<path fill="#808080" d="M431.882,170.299c-4.479,0-8.14,1.707-12.127,1.707c-2.851,0-5.374-1.058-6.269-1.543v38.015
		c0,4.639,8.546,4.639,8.546,4.639v-34.759c0,0,3.663-1.383,8.709-1.383c6.514,0,8.872,2.688,8.872,7.326v24.177
		c0,4.479,8.552,4.639,8.552,4.639v-30.038C448.165,172.987,439.78,170.299,431.882,170.299z"/>
	<path fill="#666666" d="M467.543,168.75c0-4.963,4.313-6.021,10.34-6.021c7.651,0,19.373,1.465,19.373,8.709
		c0,0.325,0,0.732-0.08,1.14c2.278-3.828,3.336-7.001,3.336-9.606c0-7.812-9.441-10.582-22.712-10.582
		c-13.595,0-24.747,4.148-24.747,17.909c0,24.749,34.924,11.969,34.924,25.399c0,4.803-3.58,7.408-11.479,7.408
		c-6.836,0-18.315-1.548-18.315-8.956c-2.605,3.256-3.663,6.025-3.663,8.384c0,7.574,11.316,10.912,21.979,10.912
		c15.223,0,25.97-6.273,25.97-18.729C502.467,167.858,467.543,180.638,467.543,168.75z"/>
	<path fill="#666666" d="M506.543,169.076v37.777c0,6.264,13.675,6.264,13.675,6.264v-37.772
		C520.218,169.324,507.683,169.076,506.543,169.076z"/>
	<path fill="#666666" d="M506.787,161.424c0,1.466,1.791,3.014,4.316,3.014h8.707v-7.816c0-1.223-1.791-3.091-4.233-3.091h-8.79
		V161.424z"/>
	<path fill="#666666" d="M555.632,195.208c0,7.244-4.966,8.467-8.954,8.467c-5.944,0-7.084-2.688-7.084-7.734v-13.92h8.631
		c7.489,0,7.569-9.932,7.569-9.932h-16.2v-2.601c0-7.249-13.675-6.352-13.675-6.352v35.084c0,9.607,6.429,15.303,18.641,15.303
		c12.292,0,15.468-5.618,15.468-10.174C560.027,200.176,558.317,197.731,555.632,195.208z"/>
	<path fill="#D29DC1" d="M164.034,161.837c0.454-0.427,0.992-0.786,1.931-1.038c1.293-0.354,3.204-0.912,4.153-1.252
		c0.95-0.33,1.65-0.65,2.197-0.873c0.456-0.185,1.16-0.438,1.854-0.704c0.701-0.262,0.98-0.306,1.292-0.384
		c0.313-0.072,0.233-0.489,0.245-0.863c0.007-0.368,0.08-1.169,0.055-1.713c-0.032-0.538-0.118-1.135-0.137-1.445
		c-0.016-0.315-0.26-0.587-0.495-1.203c-0.224-0.616-0.398-1.602-0.429-1.771c-0.042-0.17-0.495-0.146-0.766-0.471
		c-0.275-0.33-0.132-0.907-0.198-1.048c-0.064-0.141-0.381-0.781-0.402-1.179c-0.022-0.394-0.192-0.961-0.297-1.267
		c-0.102-0.311-0.261-0.587-0.19-0.927c0.067-0.354,0.405-0.397,0.611-0.354c0.201,0.048,0.221-0.088,0.192-0.665
		c-0.024-0.567,0.009-3.591,0.009-3.591c0.153-1.519,0.215-2.576,1.442-4.609c0.737-1.218,1.764-1.746,3.349-2.271
		c1.248-0.417,2.43-0.432,3.215-0.358c2.069,0.213,3.463,1.367,4.336,2.289c0.878,0.922,1.519,2.291,1.755,3.504
		c0.233,1.208,0.01,3.449-0.125,4.168c-0.132,0.723-0.067,0.912-0.043,1.314c0.016,0.397,0.347,0.092,0.548,0.17
		c0.205,0.077,0.332,0.267,0.32,0.641c-0.014,0.363-0.281,0.723-0.424,1.164c-0.148,0.432-0.114,0.572-0.123,0.917
		c-0.013,0.34-0.27,0.839-0.373,1.072c-0.098,0.233-0.215,0.863-0.482,1.111c-0.273,0.237-0.566,0.198-0.736,0.208
		c-0.169,0.01-0.294,0.927-0.354,1.359c-0.063,0.432-0.366,1.213-0.576,1.537c-0.211,0.325-0.211,0.869-0.211,1.412
		c0,0.539,0.01,1.849,0.055,2.135c0.042,0.277,1.46,0.719,2.069,0.859c0.609,0.146,2.033,0.693,2.695,0.888
		c0.669,0.194,2.316,0.592,3.5,0.902c1.104,0.286,2.749,0.67,3.533,0.985c3.332-3.421,7.005-6.434,10.952-9.078
		c-0.024-0.408-0.055-0.815-0.085-1.218c-0.042-0.549-0.082-1.092-0.137-1.636c-0.058-0.587-0.137-1.164-0.211-1.746
		c-0.068-0.524-0.132-1.053-0.213-1.577c-0.092-0.587-0.204-1.164-0.312-1.746c-0.094-0.51-0.184-1.02-0.293-1.524
		c-0.123-0.582-0.271-1.154-0.416-1.731c-0.121-0.495-0.239-0.99-0.374-1.479c-0.163-0.578-0.348-1.146-0.529-1.718
		c-0.15-0.48-0.295-0.961-0.46-1.437c-0.198-0.567-0.423-1.131-0.642-1.698c-0.182-0.466-0.351-0.937-0.547-1.397
		c-0.238-0.558-0.504-1.115-0.762-1.669c-0.213-0.456-0.415-0.917-0.643-1.368c-0.276-0.548-0.582-1.087-0.88-1.63
		c-0.248-0.446-0.48-0.902-0.744-1.345c-0.301-0.514-0.634-1.014-0.957-1.523c-0.301-0.471-0.586-0.94-0.905-1.406
		c-0.347-0.51-0.727-1.005-1.095-1.504c-0.335-0.452-0.651-0.913-1.006-1.364c-0.398-0.504-0.831-1.004-1.254-1.504
		c-0.364-0.432-0.71-0.868-1.092-1.295c-0.454-0.51-0.95-1.01-1.429-1.509c-0.393-0.413-0.766-0.83-1.177-1.232
		c-0.519-0.515-1.08-1.02-1.626-1.523c-0.415-0.384-0.811-0.777-1.241-1.155c-0.606-0.534-1.258-1.058-1.898-1.582
		c-0.416-0.344-0.811-0.693-1.244-1.033c-0.739-0.582-1.528-1.149-2.308-1.718c-0.376-0.276-0.728-0.558-1.116-0.834
		c-1.191-0.835-2.427-1.669-3.714-2.484c-1.098,0.796-2.141,1.592-3.152,2.382c-0.125,0.098-0.255,0.199-0.382,0.296
		c-0.947,0.753-1.852,1.505-2.726,2.257c-0.156,0.136-0.314,0.267-0.466,0.402c-0.85,0.737-1.663,1.479-2.443,2.223
		c-0.14,0.131-0.274,0.262-0.412,0.393c-0.781,0.757-1.536,1.509-2.25,2.266c-0.083,0.088-0.16,0.175-0.24,0.258
		c-0.795,0.854-1.553,1.702-2.266,2.557c-0.056,0.063-0.109,0.131-0.163,0.199c-0.722,0.868-1.407,1.741-2.046,2.614
		c-0.033,0.044-0.061,0.088-0.092,0.132c-0.654,0.897-1.27,1.8-1.841,2.702c-0.007,0.01-0.015,0.024-0.023,0.034
		c-0.572,0.907-1.104,1.814-1.599,2.727c-0.018,0.029-0.036,0.063-0.052,0.092c-0.543,1.005-1.041,2.014-1.496,3.028
		c-0.012,0.029-0.023,0.053-0.034,0.082c-0.443,0.99-0.844,1.984-1.209,2.984c-0.023,0.062-0.046,0.131-0.068,0.198
		c-0.346,0.961-0.659,1.932-0.936,2.901c-0.024,0.093-0.05,0.18-0.076,0.272c-0.268,0.955-0.503,1.911-0.71,2.872
		c-0.022,0.106-0.044,0.213-0.065,0.32c-0.199,0.951-0.373,1.906-0.517,2.872c-0.019,0.116-0.035,0.233-0.052,0.345
		c-0.139,0.965-0.256,1.931-0.348,2.906c-0.014,0.116-0.023,0.232-0.034,0.345c-0.086,0.979-0.154,1.97-0.198,2.969
		c-0.006,0.106-0.012,0.219-0.018,0.325c-0.042,1.014-0.062,2.033-0.064,3.062c-0.001,0.054-0.001,0.111-0.003,0.165
		C156.81,154.846,160.619,158.111,164.034,161.837z"/>
	<path fill="#BEDABC" d="M194.447,187.722c-0.269,0.311-0.547,0.611-0.822,0.917c-0.01,0.728-0.012,1.45,0.001,2.014
		c0.428-0.281,0.864-0.568,1.309-0.85c-0.126-0.446-0.228-0.834-0.252-1.043C194.654,188.532,194.554,188.134,194.447,187.722z"/>
	<path fill="#BEDABC" d="M200.339,179.93c0.042,0.791,0.096,1.669,0.119,2.101c0.038,0.713,0.251,2.615,0.384,3.518
		c0.046,0.296,0.124,0.631,0.211,0.966c6.664-3.052,15.054-5.318,25.497-5.793c7.458-10.732,12.757-24.809,12.739-43.144
		c-11.017,3.241-21.889,7.525-31.291,13.818c0.02,0.354,0.04,0.708,0.056,1.062C208.513,163.006,205.333,172.119,200.339,179.93z"/>
	<path fill="#A78E96" d="M194.447,187.722c-0.146-0.549-0.299-1.131-0.312-1.363c-0.022-0.423-0.319-1.33-0.384-1.097
		c-0.035,0.126-0.103,1.771-0.126,3.377C193.9,188.333,194.178,188.033,194.447,187.722z"/>
	<path fill="#A78E96" d="M197.03,160.489c0.06,0.028,0.125,0.053,0.171,0.072c0.705,0.335,1.353,1.296,1.7,2.023
		c0.353,0.723,0.826,2.697,1.07,3.508c0.245,0.815,0.418,3.173,0.397,3.77c-0.027,0.602-0.149,3.688-0.176,4.313
		c-0.026,0.636,0.077,3.702,0.092,4.479c0.007,0.296,0.028,0.767,0.055,1.276c4.994-7.812,8.174-16.924,7.714-27.472
		c-0.016-0.354-0.036-0.708-0.056-1.062c-0.006,0.005-0.011,0.01-0.016,0.015C204.035,154.055,200.362,157.068,197.03,160.489z"/>
	<path fill="#BEDABC" d="M161.273,182.521c-4.736-7.947-8.605-18.098-8.583-30.087c0-0.146-0.002-0.286,0-0.432
		c-9.603-6.628-20.81-11.082-32.174-14.425c-0.018,18.389,5.312,32.493,12.802,43.235c11.61,0.762,20.598,3.755,27.433,7.521
		C160.91,186.912,161.151,183.739,161.273,182.521z"/>
	<path fill="#BEDABC" d="M168.711,192.807c-0.496-0.573-1.002-1.18-1.51-1.806c-0.073,0.258-0.129,0.452-0.129,0.452
		s-0.089,0.358-0.213,0.834c0.615,0.466,1.2,0.937,1.766,1.407C168.645,193.442,168.676,193.141,168.711,192.807z"/>
	<path fill="#A78E96" d="M168.711,192.807c0.146-1.33,0.359-3.11,0.309-4.003c-0.058-1.175-0.13-2.543-0.245-3.295
		s-0.473-0.96-0.489-0.582c-0.015,0.384-0.18,0.845-0.255,1.645c-0.07,0.806-0.392,2.688-0.547,3.339
		c-0.085,0.358-0.196,0.775-0.284,1.091C167.709,191.627,168.215,192.234,168.711,192.807z"/>
	<path fill="#A78E96" d="M161.273,182.521c0.018-0.16,0.033-0.301,0.046-0.384c0.13-0.863,0.166-4.454,0.095-5.875
		c-0.072-1.422-0.382-4.032-0.542-4.881c-0.159-0.84,0.219-3.489,0.484-5.042c0.258-1.552,1.586-3.338,2.178-3.993
		c0.164-0.179,0.328-0.349,0.5-0.509c-3.415-3.727-7.224-6.991-11.344-9.835l0,0c-0.002,0.146,0,0.286,0,0.432
		C152.668,164.423,156.537,174.574,161.273,182.521z"/>
	<path fill="#9AD4DF" d="M144.534,212.927c-0.758-0.932-0.992-2.086-1.179-2.959c-0.19-0.879-0.025-2.111,0.209-2.553
		c0.234-0.441,1.031-1.533,1.28-1.746c0.244-0.219-0.453,0.072-0.762,0.208c-0.306,0.131-1.069,0.315-1.715,0.374
		c-0.654,0.063-1.019,0.165-1.726,0.286c-0.706,0.126-1.223,0.121-1.591,0.146c-0.368,0.015-0.869,0.243-1.099,0.286
		c-0.224,0.039-0.328,0.243-0.523,0.306c-0.196,0.073-0.635,0.073-0.867,0c-0.233-0.072-0.061-0.523-0.155-0.631
		c-0.09-0.106-0.445-0.116-0.699-0.102c-0.257,0.015-0.484-0.059-0.827-0.044c-0.339,0.02-0.622,0.098-1.135,0.117
		c-0.509,0.028-0.305-0.384-0.321-0.724c-0.016-0.339-0.957,0.263-1.294,0.33c-0.341,0.078-0.431-0.306-0.383-0.698
		c0.075-0.563,1.022-1.146,1.703-1.242c0.678-0.093,1.756-0.194,2.159-0.219c0.399-0.015,0.781-0.262,1.236-0.291
		c0.458-0.02,0.229-0.062,0.045-0.286c-0.185-0.219-0.717-1.674-0.843-1.95c-0.128-0.277,0.023-0.631,0.115-1.146
		c0.083-0.523,0.586-1.8,0.728-2.324c0.148-0.514,0.095-1.543,0.308-1.78c0.108-0.121-0.041,0.077,0.167-0.121
		c0.106-0.111,0.106-0.606,0.24-0.811c0.264-0.412,0.61-0.373,0.955-0.276c0.347,0.092,1.144,1.135,1.629,1.679
		c0.481,0.543,1.34,1.586,1.751,1.849c0.413,0.267,1.451,0.495,1.976,0.752c0.524,0.257,0.955,0.922,1.482,1.062
		c0.522,0.146,1.251-0.068,2.031-0.394c0.717-0.295,2.207-1.3,3.003-1.805c-6.036-4.463-12.064-10.169-17.113-17.408
		c-1.882-0.121-3.833-0.189-5.854-0.189c-9.409,0-20.35,1.402-33.029,4.828c10.12,15.788,32.108,28.378,53.423,30.45
		c-0.159-0.078-0.302-0.15-0.414-0.219C146.647,215.184,145.295,213.849,144.534,212.927z"/>
	<path fill="#9AD4DF" d="M138.659,198.45c-0.229,0.01-0.239,0.504-0.369,1.009c-0.124,0.5-0.13,1.106-0.081,1.335
		c0.047,0.223,0.246,1.086,0.298,1.387c0.056,0.307,0.427,0.054,0.564-0.141c0.142-0.193,0.662-1.101,0.798-1.523
		c0.126-0.427-0.858-1.741-0.858-1.741S138.886,198.44,138.659,198.45z"/>
	<path fill="#9AD4DF" d="M152.987,202.719c-0.495,0.106-1.125,0.364-1.231,0.523c-0.107,0.156,1.035,0.209,1.572,0.258
		c0.536,0.049,2.086,0.18,2.922,0.209c0.65,0.023,1.96,0.154,3.037,0.271c-1.265-0.719-2.548-1.5-3.851-2.324
		c-0.046,0.02-0.105,0.049-0.149,0.068C154.51,202.069,153.474,202.618,152.987,202.719z"/>
	<path fill="#76C1AC" d="M160.156,204.078c1.11,0.136,2.922,0.471,3.526,0.441c0.609-0.029,2.462,0.165,2.636-0.185
		c0.169-0.354,0.416-1.896,0.619-2.483c0.193-0.578,0.62-1.912,0.969-3.188c0.353-1.266,0.611-3.556,0.701-4.76
		c0.005-0.058,0.012-0.141,0.018-0.208c-0.566-0.471-1.151-0.941-1.766-1.407c-0.236,0.897-0.605,2.232-0.794,2.489
		c-0.28,0.397-1.461,1.179-2.079,1.63c-0.622,0.446-2.636,1.922-2.636,1.922l-0.809,0.577c0,0-1.315,1.019-2.277,1.445
		c-0.916,0.408-2.043,0.956-2.827,1.306c1.303,0.824,2.586,1.605,3.851,2.324C159.605,204.014,159.904,204.048,160.156,204.078z"/>
	<path fill="#76C1AC" d="M150.43,198.221c0.07-0.043,0.146-0.092,0.205-0.126c0.716-0.441,3.513-2.581,3.998-3.12
		c0.484-0.538,3.205-3.075,3.694-3.444c0.5-0.364,1.272-0.863,1.708-1.228c0.438-0.364,0.47-0.825,0.619-1.291
		c0.025-0.082,0.06-0.329,0.097-0.679c-6.835-3.766-15.822-6.759-27.433-7.521C138.366,188.052,144.395,193.758,150.43,198.221z"/>
	<path fill="#9AD4DF" d="M219.772,199.575c0.188-0.004,0.238-0.543,0.449-0.78c0.217-0.243,0.365-0.286,0.421-0.67
		s0.155-1.456,0.101-1.718c-0.053-0.262,0.158-0.65-0.031-0.606c-0.19,0.049-0.615,0.567-0.615,0.567s-0.65,0.714-0.742,1.141
		c-0.093,0.422-0.192,0.655-0.102,0.994C219.351,198.837,219.579,199.584,219.772,199.575z"/>
	<path fill="#9AD4DF" d="M211.099,196.892c0.496,0.252,1.26,0.34,1.954,0.276c0.822-0.067,1.57-0.504,2.327-0.858
		c0.75-0.354,1.759-0.636,2.04-0.68c0.288-0.044,0.857-0.528,1.166-0.684c0.306-0.16,1.536-1.684,1.805-1.922
		c0.273-0.242,0.956-0.791,1.416-0.815c0.453-0.023,0.815,0.389,0.838,0.781c0.02,0.398-0.165,0.583-0.187,0.781
		c-0.015,0.199-0.042,1.373-0.042,1.373c0,0.631,0.039,1.335,0.104,2.043c0.069,0.713,0.252,1.558,0.163,1.96
		c-0.093,0.403-0.28,0.587-0.444,0.825c-0.159,0.232,0.311-0.049,0.311-0.049s0.765-0.18,1.19-0.203
		c0.427-0.02,0.88-0.015,1.308,0.014c0.433,0.039,0.643,0.282,0.867,0.67c0.219,0.393,0.173,0.68-0.012,0.946
		c-0.183,0.262-0.337,0.102-0.744-0.078c-0.413-0.179-0.659,0.034-0.963,0.049c-0.317,0.02-0.648,0.237-1.069,0.374
		c-0.418,0.136-0.583,0.228-0.865,0.33c-0.28,0.097-0.634,0.344-0.892,0.388c-0.256,0.044-0.351,0.17-0.529,0.311
		c-0.113,0.097-0.292,0.136-0.565,0.146c-0.259,0.01-0.326,0.219-0.579,0.291c-0.256,0.068-0.454,0.073-0.705,0.092
		c-0.262,0.015-0.495,0.364-0.776,0.466c-0.28,0.103-0.37,0.078-0.861-0.038c-0.486-0.121-0.759-0.471-1.086-0.631
		c-0.319-0.15-0.38-0.093-0.889-0.238c-0.526-0.146-1.086-0.427-1.433-0.494c-0.34-0.068,0.252,0.955,0.532,1.906
		c0.278,0.961-0.205,2.096-0.421,2.819c-0.223,0.728-0.815,2.382-1.592,3.449c-0.775,1.067-1.094,1.456-2.071,2.358
		c-0.981,0.907-1.865,0.897-2.512,0.989c-0.654,0.093-1.26,0.52-2.145,1.029c-0.865,0.479-2.054,1.115-2.66,1.339
		c0.401,0.005,0.798,0.029,1.202,0.029c23.072,0,48.383-13.493,59.468-30.785c-12.683-3.426-23.624-4.828-33.033-4.828
		c-1.423,0-2.811,0.034-4.167,0.098C221.97,187.309,216.575,192.618,211.099,196.892z"/>
	<path fill="#9AD4DF" d="M208.369,200.361c-0.01-0.106-0.674-0.358-1.235-0.553c-0.227,0.16-0.455,0.325-0.684,0.48
		C207.537,200.323,208.375,200.506,208.369,200.361z"/>
	<path fill="#76C1AC" d="M201.669,188.241c0.282,0.471,1.041,0.859,1.547,1.237c0.502,0.369,1.382,1.402,2.077,2.111
		c0.692,0.708,1.402,1.775,1.739,2.13c0.326,0.354,1.188,0.999,1.635,1.373c0.449,0.373,1.724,1.275,2.169,1.659
		c0.07,0.058,0.17,0.097,0.263,0.141c5.476-4.274,10.871-9.583,15.451-16.171c-10.442,0.475-18.833,2.741-25.497,5.793
		C201.235,187.217,201.478,187.926,201.669,188.241z"/>
	<path fill="#76C1AC" d="M193.689,191.589c0.166,0.994-0.112,2.935,0.111,4.361c0.226,1.432-0.005,2.14,0.44,3.396
		c0.09,0.257,0.31,0.839,0.368,1.193c0.194,1.155,0.602,2.062,0.634,2.596c0.042,0.724,0.618,0.995,0.618,0.995
		c0.518-0.325,0.51-0.52,1.244-0.976c0.736-0.461,1.657-1.092,2.332-1.373c0.882-0.354,1.804-0.646,2.973-0.883
		c1.158-0.229,2.679-0.631,3.862-0.621c0.063,0,0.118,0.005,0.178,0.01c0.229-0.155,0.458-0.32,0.684-0.48
		c-0.217-0.073-0.418-0.141-0.558-0.185c-0.503-0.165-2.996-1.252-3.576-1.528c-0.586-0.271-2.589-1.494-3.337-1.994
		c-0.753-0.495-3.097-2.537-3.097-2.537s-0.878-0.752-1.075-1.693c-0.12-0.563-0.366-1.383-0.557-2.067
		c-0.445,0.281-0.88,0.568-1.309,0.85C193.64,191.07,193.658,191.4,193.689,191.589z"/>
</g>
<text transform="matrix(1 0 0 1 108.6162 276.6704)" fill="#808080" font-family="'DiavloLight-Regular'" font-size="43.0934">Where meditators meet</text>
</svg>
