<?xml version="1.0" encoding="utf-8"?>
<!-- Generator: Adobe Illustrator 15.1.0, SVG Export Plug-In . SVG Version: 6.00 Build 0)  -->
<!DOCTYPE svg PUBLIC "-//W3C//DTD SVG 1.1//EN" "http://www.w3.org/Graphics/SVG/1.1/DTD/svg11.dtd">
<svg version="1.1" id="Layer_1" xmlns="http://www.w3.org/2000/svg" xmlns:xlink="http://www.w3.org/1999/xlink" x="0px" y="0px"
	 width="661.636px" height="389.877px" viewBox="0 0 661.636 389.877" enable-background="new 0 0 661.636 389.877"
	 xml:space="preserve">
<g>
	<path fill="none" d="M314.795,218.416c0-2.863-1.681-4.852-6.283-4.852c-4.976,0-6.283,2.367-6.283,6.409v1.989
		c0.312,0.121,3.298,0.873,5.536,0.873C312.991,222.836,314.795,221.215,314.795,218.416z"/>
	<path fill="none" d="M277.344,213.564c-3.731,0-5.97,1.058-5.97,1.058v16.423c0,3.295,3.732,5.595,7.465,5.595
		c3.42,0,5.97-1.863,5.97-6.216v-10.576C284.809,215.616,283.13,213.564,277.344,213.564z"/>
	<path fill="none" d="M241.202,201.376c-9.267,0-11.071,3.668-11.071,9.825v15.366c0,6.157,1.804,9.825,11.071,9.825
		c9.456,0,11.26-3.668,11.26-9.825v-15.366C252.461,205.044,250.658,201.376,241.202,201.376z"/>
	<path fill="#808080" d="M241.265,196.15c-12.253,0-17.913,5.352-17.913,14.24v16.986c0,8.894,5.66,14.24,17.913,14.24
		c12.254,0,17.976-5.347,17.976-14.24v-16.986C259.241,201.502,253.519,196.15,241.265,196.15z M252.461,226.567
		c0,6.157-1.804,9.825-11.26,9.825c-9.267,0-11.071-3.668-11.071-9.825v-15.366c0-6.157,1.804-9.825,11.071-9.825
		c9.456,0,11.26,3.668,11.26,9.825V226.567z"/>
	<path fill="#808080" d="M277.781,208.591c-3.172,0-5.91,1.116-8.832,1.116c-1.306,0-2.677-0.311-4.107-0.995v43.294
		c0,4.42,6.345,4.226,6.532,4.226v-4.1v-8.836c0-2.862-0.56-4.599-0.56-4.599s2.489,2.92,8.834,2.92
		c6.282,0,11.693-3.852,11.693-10.262v-12.439C291.341,212.322,286.489,208.591,277.781,208.591z M284.809,230.424
		c0,4.353-2.55,6.216-5.97,6.216c-3.732,0-7.465-2.3-7.465-5.595v-16.423c0,0,2.239-1.058,5.97-1.058
		c5.786,0,7.465,2.052,7.465,6.283V230.424z"/>
	<path fill="#808080" d="M309.569,236.334c-5.224,0-7.341-2.053-7.341-6.104v-3.416c1.681,0.932,4.292,1.305,6.345,1.305
		c9.455,0,12.753-4.541,12.753-9.703c0-5.91-4.292-9.825-12.69-9.825c-8.398,0-12.939,3.915-12.939,10.451v12.125
		c0,6.535,5.226,10.45,13.872,10.45c6.656,0,12.128-2.61,12.128-7.03c0-1.431-0.559-2.983-1.741-4.726
		C319.896,233.908,315.542,236.334,309.569,236.334z M302.229,219.974c0-4.042,1.308-6.409,6.283-6.409
		c4.602,0,6.283,1.988,6.283,4.852c0,2.799-1.804,4.42-7.03,4.42c-2.238,0-5.225-0.752-5.536-0.873V219.974z"/>
	<path fill="#808080" d="M340.113,208.591c-3.423,0-6.221,1.306-9.269,1.306c-2.177,0-4.104-0.806-4.789-1.185v29.054
		c0,3.541,6.531,3.541,6.531,3.541v-26.559c0,0,2.798-1.058,6.655-1.058c4.976,0,6.778,2.052,6.778,5.599v18.477
		c0,3.415,6.533,3.541,6.533,3.541v-22.949C352.554,210.644,346.146,208.591,340.113,208.591z"/>
	<path fill="#666666" d="M367.361,207.407c0-3.794,3.297-4.604,7.901-4.604c5.847,0,14.803,1.12,14.803,6.656
		c0,0.248,0,0.559-0.062,0.869c1.741-2.921,2.552-5.348,2.552-7.336c0-5.973-7.22-8.089-17.355-8.089
		c-10.388,0-18.907,3.174-18.907,13.688c0,18.907,26.681,9.141,26.681,19.407c0,3.668-2.734,5.662-8.768,5.662
		c-5.226,0-13.998-1.184-13.998-6.846c-1.989,2.484-2.799,4.604-2.799,6.404c0,5.788,8.65,8.341,16.797,8.341
		c11.63,0,19.844-4.794,19.844-14.309C394.049,206.723,367.361,216.489,367.361,207.407z"/>
	<path fill="#666666" d="M397.159,207.659v28.859c0,4.788,10.451,4.788,10.451,4.788v-28.863
		C407.61,207.844,398.032,207.659,397.159,207.659z"/>
	<path fill="#666666" d="M397.349,201.808c0,1.121,1.368,2.305,3.294,2.305h6.657v-5.978c0-0.932-1.368-2.362-3.233-2.362h-6.718
		V201.808z"/>
	<path fill="#666666" d="M434.669,227.625c0,5.531-3.794,6.467-6.841,6.467c-4.541,0-5.412-2.057-5.412-5.909v-10.64h6.596
		c5.721,0,5.783-7.584,5.783-7.584h-12.379v-1.994c0-5.536-10.449-4.852-10.449-4.852v26.812c0,7.336,4.913,11.692,14.243,11.692
		c9.394,0,11.819-4.294,11.819-7.772C438.029,231.419,436.722,229.551,434.669,227.625z"/>
	<path fill="#D29DC1" d="M312.646,126.672c0.389-0.369,0.849-0.675,1.653-0.893c1.106-0.301,2.743-0.776,3.556-1.068
		c0.812-0.286,1.41-0.558,1.88-0.752c0.392-0.155,0.992-0.368,1.588-0.597c0.599-0.228,0.84-0.262,1.105-0.329
		c0.268-0.063,0.2-0.423,0.211-0.738c0.005-0.32,0.067-1.009,0.046-1.47c-0.028-0.461-0.102-0.971-0.118-1.237
		c-0.013-0.271-0.222-0.5-0.424-1.028c-0.192-0.524-0.339-1.368-0.368-1.515c-0.035-0.15-0.424-0.126-0.655-0.407
		c-0.235-0.281-0.113-0.771-0.17-0.897c-0.055-0.116-0.325-0.665-0.344-1.004c-0.02-0.345-0.163-0.825-0.254-1.087
		c-0.087-0.267-0.223-0.5-0.164-0.791c0.058-0.306,0.347-0.34,0.524-0.306c0.172,0.044,0.188-0.078,0.163-0.568
		c-0.02-0.484,0.01-3.07,0.01-3.07c0.131-1.306,0.183-2.208,1.233-3.95c0.631-1.043,1.511-1.489,2.868-1.945
		c1.068-0.354,2.08-0.364,2.752-0.301c1.771,0.18,2.965,1.169,3.712,1.955c0.752,0.791,1.299,1.96,1.503,2.999
		c0.199,1.038,0.007,2.954-0.106,3.57c-0.114,0.616-0.059,0.781-0.038,1.126c0.012,0.335,0.297,0.077,0.47,0.141
		c0.176,0.068,0.282,0.233,0.272,0.554c-0.01,0.311-0.24,0.615-0.362,0.994c-0.126,0.369-0.097,0.49-0.104,0.786
		c-0.011,0.286-0.231,0.713-0.319,0.917c-0.083,0.199-0.183,0.742-0.413,0.951c-0.233,0.203-0.485,0.17-0.63,0.175
		c-0.146,0.009-0.252,0.795-0.303,1.164c-0.056,0.369-0.313,1.038-0.495,1.319c-0.18,0.281-0.18,0.742-0.18,1.209
		c0,0.461,0.007,1.581,0.046,1.824c0.038,0.242,1.25,0.621,1.771,0.737c0.522,0.126,1.741,0.597,2.31,0.762
		c0.572,0.165,1.979,0.509,2.993,0.771c0.946,0.247,2.354,0.567,3.027,0.844c2.851-2.931,5.992-5.507,9.374-7.772
		c-0.024-0.35-0.049-0.699-0.072-1.043c-0.037-0.466-0.073-0.937-0.117-1.397c-0.051-0.505-0.118-1-0.184-1.494
		c-0.059-0.451-0.112-0.907-0.18-1.354c-0.083-0.499-0.175-0.994-0.27-1.494c-0.08-0.432-0.157-0.868-0.25-1.3
		c-0.106-0.5-0.232-0.99-0.356-1.485c-0.104-0.422-0.206-0.844-0.32-1.266c-0.138-0.495-0.298-0.985-0.454-1.471
		c-0.126-0.412-0.249-0.824-0.393-1.228c-0.167-0.489-0.361-0.97-0.548-1.455c-0.155-0.398-0.301-0.801-0.469-1.193
		c-0.203-0.48-0.432-0.951-0.652-1.432c-0.182-0.388-0.354-0.781-0.548-1.169c-0.238-0.471-0.5-0.932-0.758-1.397
		c-0.208-0.384-0.407-0.771-0.635-1.15c-0.258-0.441-0.544-0.868-0.818-1.305c-0.259-0.398-0.502-0.806-0.775-1.203
		c-0.297-0.438-0.621-0.859-0.937-1.286c-0.286-0.393-0.561-0.781-0.859-1.169c-0.342-0.433-0.713-0.859-1.074-1.291
		c-0.311-0.369-0.606-0.742-0.937-1.106c-0.389-0.437-0.812-0.863-1.223-1.29c-0.335-0.354-0.655-0.709-1.007-1.058
		c-0.444-0.438-0.925-0.869-1.39-1.301c-0.359-0.33-0.694-0.665-1.065-0.99c-0.517-0.455-1.076-0.902-1.624-1.354
		c-0.356-0.291-0.694-0.592-1.065-0.883c-0.629-0.5-1.306-0.984-1.975-1.475c-0.322-0.233-0.625-0.476-0.955-0.709
		c-1.02-0.718-2.078-1.431-3.179-2.13c-0.941,0.68-1.833,1.363-2.699,2.038c-0.108,0.087-0.218,0.175-0.326,0.257
		c-0.81,0.646-1.586,1.286-2.334,1.932c-0.134,0.111-0.269,0.228-0.399,0.344c-0.727,0.631-1.423,1.267-2.091,1.897
		c-0.119,0.116-0.235,0.229-0.352,0.34c-0.671,0.646-1.315,1.295-1.926,1.94c-0.07,0.073-0.137,0.146-0.208,0.224
		c-0.678,0.723-1.327,1.45-1.937,2.184c-0.048,0.058-0.093,0.111-0.141,0.169c-0.617,0.747-1.203,1.495-1.751,2.242
		c-0.027,0.034-0.051,0.072-0.079,0.106c-0.56,0.771-1.086,1.543-1.576,2.314c-0.006,0.015-0.012,0.024-0.019,0.034
		c-0.492,0.776-0.946,1.552-1.37,2.333c-0.015,0.024-0.029,0.054-0.043,0.078c-0.465,0.858-0.892,1.728-1.281,2.591
		c-0.01,0.024-0.019,0.049-0.029,0.068c-0.378,0.849-0.722,1.702-1.034,2.557c-0.021,0.054-0.039,0.111-0.059,0.17
		c-0.296,0.819-0.563,1.654-0.801,2.484c-0.022,0.077-0.044,0.155-0.064,0.237c-0.229,0.811-0.433,1.63-0.609,2.455
		c-0.02,0.087-0.038,0.18-0.057,0.271c-0.169,0.815-0.317,1.635-0.441,2.46c-0.016,0.097-0.031,0.199-0.045,0.296
		c-0.12,0.825-0.218,1.65-0.298,2.489c-0.011,0.092-0.02,0.194-0.028,0.291c-0.075,0.845-0.131,1.688-0.171,2.542
		c-0.004,0.093-0.01,0.185-0.014,0.282c-0.038,0.863-0.054,1.736-0.057,2.62c-0.001,0.048-0.001,0.092-0.001,0.136
		C306.465,120.685,309.725,123.479,312.646,126.672z"/>
	<path fill="#BEDABC" d="M338.68,148.825c-0.23,0.262-0.469,0.529-0.704,0.786c-0.009,0.621-0.009,1.237,0,1.723
		c0.366-0.243,0.738-0.485,1.121-0.724c-0.106-0.388-0.194-0.718-0.216-0.897C338.856,149.52,338.771,149.18,338.68,148.825z"/>
	<path fill="#BEDABC" d="M343.723,142.154c0.037,0.679,0.083,1.431,0.1,1.8c0.034,0.606,0.219,2.236,0.33,3.013
		c0.039,0.248,0.106,0.539,0.182,0.825c5.704-2.615,12.887-4.552,21.824-4.959c6.383-9.185,10.919-21.236,10.904-36.928
		c-9.432,2.771-18.737,6.438-26.784,11.829c0.017,0.301,0.031,0.606,0.046,0.907C350.717,127.666,347.998,135.473,343.723,142.154z"
		/>
	<path fill="#A78E96" d="M338.68,148.825c-0.124-0.471-0.258-0.966-0.268-1.169c-0.019-0.359-0.271-1.136-0.329-0.937
		c-0.029,0.111-0.088,1.519-0.107,2.892C338.211,149.354,338.449,149.087,338.68,148.825z"/>
	<path fill="#A78E96" d="M340.892,125.517c0.049,0.024,0.104,0.044,0.146,0.063c0.602,0.286,1.157,1.106,1.456,1.727
		c0.301,0.621,0.706,2.311,0.912,3.009c0.214,0.693,0.361,2.712,0.345,3.227c-0.024,0.515-0.131,3.153-0.153,3.692
		c-0.021,0.538,0.065,3.168,0.08,3.828c0.005,0.252,0.022,0.66,0.046,1.092c4.275-6.682,6.994-14.488,6.602-23.513
		c-0.015-0.301-0.029-0.606-0.046-0.907c-0.005,0.005-0.01,0.005-0.013,0.01C346.884,120.01,343.742,122.586,340.892,125.517z"/>
	<path fill="#BEDABC" d="M310.285,144.371c-4.055-6.797-7.368-15.487-7.348-25.749c0-0.126-0.001-0.247,0-0.373
		c-8.219-5.667-17.814-9.485-27.541-12.344c-0.015,15.735,4.547,27.812,10.958,37.006c9.94,0.649,17.632,3.212,23.482,6.443
		C309.972,148.132,310.18,145.419,310.285,144.371z"/>
	<path fill="#BEDABC" d="M316.651,153.183c-0.426-0.495-0.858-1.015-1.293-1.553c-0.062,0.223-0.11,0.393-0.11,0.393
		s-0.076,0.306-0.183,0.709c0.527,0.402,1.028,0.805,1.511,1.208C316.596,153.721,316.62,153.469,316.651,153.183z"/>
	<path fill="#A78E96" d="M316.651,153.183c0.124-1.146,0.307-2.669,0.266-3.431c-0.052-1.004-0.113-2.179-0.212-2.818
		c-0.097-0.646-0.403-0.825-0.417-0.5c-0.013,0.33-0.154,0.723-0.217,1.412c-0.061,0.684-0.336,2.295-0.469,2.853
		c-0.073,0.311-0.168,0.665-0.243,0.932C315.793,152.168,316.225,152.688,316.651,153.183z"/>
	<path fill="#A78E96" d="M310.285,144.371c0.013-0.136,0.028-0.252,0.038-0.33c0.111-0.732,0.143-3.809,0.081-5.026
		c-0.062-1.213-0.328-3.449-0.463-4.173c-0.137-0.723,0.186-2.983,0.413-4.318c0.222-1.329,1.36-2.857,1.867-3.42
		c0.14-0.15,0.279-0.296,0.427-0.432c-2.922-3.193-6.181-5.987-9.708-8.423c-0.001,0-0.001,0-0.001,0c-0.001,0.126,0,0.247,0,0.373
		C302.917,128.884,306.23,137.574,310.285,144.371z"/>
	<path fill="#9AD4DF" d="M295.956,170.401c-0.65-0.796-0.849-1.785-1.01-2.532c-0.163-0.752-0.021-1.81,0.178-2.188
		c0.202-0.374,0.883-1.31,1.097-1.494c0.206-0.185-0.388,0.062-0.653,0.18c-0.262,0.111-0.915,0.267-1.469,0.315
		c-0.559,0.058-0.87,0.146-1.478,0.252c-0.603,0.106-1.045,0.102-1.361,0.121c-0.314,0.015-0.744,0.209-0.941,0.248
		c-0.191,0.028-0.279,0.208-0.447,0.262c-0.167,0.062-0.543,0.062-0.742,0c-0.199-0.063-0.051-0.451-0.132-0.539
		c-0.077-0.097-0.381-0.102-0.598-0.092c-0.22,0.015-0.415-0.049-0.709-0.034c-0.29,0.02-0.531,0.078-0.971,0.097
		c-0.437,0.029-0.262-0.324-0.275-0.62c-0.014-0.286-0.819,0.223-1.106,0.286c-0.295,0.067-0.37-0.263-0.33-0.597
		c0.065-0.485,0.876-0.985,1.458-1.063c0.581-0.082,1.504-0.169,1.85-0.188c0.339-0.015,0.668-0.229,1.055-0.248
		c0.393-0.019,0.196-0.053,0.04-0.247c-0.159-0.185-0.614-1.432-0.722-1.669c-0.11-0.237,0.021-0.539,0.098-0.98
		c0.07-0.446,0.501-1.543,0.624-1.989c0.126-0.446,0.08-1.319,0.263-1.523c0.092-0.102-0.034,0.068,0.143-0.102
		c0.092-0.098,0.092-0.524,0.205-0.699c0.228-0.354,0.522-0.32,0.817-0.232c0.297,0.072,0.979,0.971,1.395,1.437
		c0.413,0.466,1.146,1.354,1.499,1.581c0.353,0.229,1.242,0.422,1.691,0.646c0.449,0.219,0.819,0.786,1.269,0.907
		c0.446,0.126,1.071-0.059,1.738-0.335c0.614-0.257,1.888-1.115,2.569-1.543c-5.165-3.823-10.324-8.709-14.646-14.904
		c-1.61-0.103-3.28-0.16-5.01-0.16c-8.054,0-17.419,1.198-28.272,4.134c8.663,13.512,27.483,24.288,45.728,26.06
		c-0.137-0.063-0.258-0.126-0.354-0.185C297.765,172.328,296.609,171.192,295.956,170.401z"/>
	<path fill="#9AD4DF" d="M290.927,158.01c-0.196,0.005-0.205,0.432-0.316,0.863c-0.103,0.428-0.11,0.946-0.068,1.141
		c0.04,0.189,0.211,0.932,0.254,1.188c0.049,0.258,0.364,0.049,0.483-0.121c0.123-0.165,0.569-0.946,0.683-1.305
		c0.109-0.364-0.733-1.49-0.733-1.49S291.121,158,290.927,158.01z"/>
	<path fill="#9AD4DF" d="M303.191,161.663c-0.423,0.088-0.963,0.311-1.054,0.446c-0.09,0.131,0.887,0.18,1.346,0.224
		c0.458,0.039,1.786,0.15,2.501,0.18c0.557,0.015,1.678,0.126,2.6,0.232c-1.082-0.616-2.183-1.285-3.295-1.994
		c-0.042,0.02-0.091,0.044-0.13,0.063C304.496,161.105,303.609,161.576,303.191,161.663z"/>
	<path fill="#76C1AC" d="M309.328,162.828c0.948,0.116,2.501,0.402,3.018,0.373c0.521-0.024,2.107,0.146,2.255-0.155
		c0.144-0.301,0.358-1.625,0.53-2.13c0.166-0.49,0.531-1.635,0.829-2.722c0.304-1.087,0.525-3.047,0.602-4.075
		c0.003-0.054,0.011-0.122,0.015-0.18c-0.483-0.403-0.984-0.806-1.511-1.208c-0.203,0.771-0.52,1.911-0.68,2.135
		c-0.24,0.335-1.252,1.004-1.779,1.393c-0.534,0.383-2.256,1.645-2.256,1.645l-0.691,0.495c0,0-1.127,0.868-1.95,1.236
		c-0.785,0.35-1.75,0.815-2.419,1.116c1.112,0.709,2.213,1.378,3.295,1.994C308.856,162.77,309.113,162.804,309.328,162.828z"/>
	<path fill="#76C1AC" d="M301.001,157.815c0.062-0.038,0.127-0.082,0.176-0.111c0.614-0.373,3.008-2.208,3.423-2.669
		c0.415-0.461,2.745-2.629,3.161-2.949c0.428-0.311,1.089-0.737,1.464-1.053c0.374-0.311,0.4-0.699,0.527-1.102
		c0.022-0.073,0.051-0.281,0.084-0.577c-5.85-3.231-13.542-5.794-23.482-6.443C290.677,149.106,295.836,153.992,301.001,157.815z"/>
	<path fill="#9AD4DF" d="M360.355,158.976c0.162-0.01,0.206-0.466,0.386-0.67c0.185-0.208,0.311-0.247,0.358-0.577
		c0.049-0.325,0.134-1.242,0.088-1.465c-0.046-0.229,0.136-0.559-0.027-0.524c-0.162,0.044-0.525,0.485-0.525,0.485
		s-0.559,0.611-0.636,0.979c-0.08,0.359-0.165,0.559-0.088,0.85C359.996,158.34,360.192,158.98,360.355,158.976z"/>
	<path fill="#9AD4DF" d="M352.93,156.676c0.427,0.218,1.082,0.291,1.674,0.237c0.706-0.058,1.347-0.437,1.994-0.737
		c0.641-0.306,1.504-0.548,1.746-0.582c0.245-0.034,0.733-0.451,0.995-0.582c0.262-0.136,1.314-1.441,1.548-1.645
		c0.232-0.209,0.814-0.68,1.211-0.699c0.385-0.024,0.698,0.335,0.718,0.67c0.017,0.339-0.144,0.499-0.163,0.664
		c-0.01,0.175-0.033,1.18-0.033,1.18c0,0.538,0.033,1.145,0.09,1.746c0.061,0.611,0.215,1.33,0.138,1.684
		c-0.077,0.34-0.237,0.495-0.378,0.699c-0.137,0.198,0.267-0.044,0.267-0.044s0.655-0.15,1.019-0.17
		c0.364-0.02,0.752-0.015,1.116,0.015c0.373,0.029,0.551,0.237,0.742,0.572c0.189,0.335,0.15,0.582-0.01,0.806
		c-0.155,0.228-0.286,0.092-0.636-0.063c-0.354-0.155-0.562,0.029-0.824,0.044c-0.27,0.015-0.554,0.199-0.915,0.32
		c-0.356,0.111-0.5,0.194-0.74,0.276c-0.237,0.088-0.543,0.296-0.764,0.33c-0.219,0.039-0.299,0.15-0.451,0.271
		c-0.097,0.078-0.25,0.117-0.483,0.126c-0.223,0.005-0.281,0.185-0.497,0.243c-0.221,0.059-0.386,0.067-0.602,0.082
		c-0.226,0.01-0.425,0.311-0.662,0.403c-0.243,0.082-0.32,0.062-0.742-0.039c-0.415-0.102-0.647-0.403-0.927-0.538
		c-0.276-0.132-0.325-0.078-0.762-0.204c-0.451-0.121-0.93-0.364-1.228-0.427c-0.291-0.054,0.216,0.824,0.456,1.64
		c0.237,0.815-0.175,1.79-0.359,2.406c-0.193,0.626-0.698,2.038-1.363,2.955c-0.664,0.912-0.937,1.242-1.771,2.019
		c-0.842,0.776-1.599,0.771-2.154,0.844c-0.559,0.083-1.077,0.446-1.834,0.883c-0.737,0.413-1.757,0.956-2.275,1.15
		c0.342,0,0.682,0.02,1.028,0.02c19.747,0,41.41-11.548,50.901-26.346c-10.856-2.936-20.218-4.134-28.272-4.134
		c-1.223,0-2.406,0.024-3.568,0.082C362.238,148.476,357.616,153.018,352.93,156.676z"/>
	<path fill="#9AD4DF" d="M350.596,159.645c-0.01-0.092-0.577-0.305-1.058-0.471c-0.194,0.137-0.388,0.272-0.585,0.408
		C349.883,159.611,350.601,159.771,350.596,159.645z"/>
	<path fill="#76C1AC" d="M344.861,149.271c0.242,0.402,0.893,0.732,1.324,1.058c0.427,0.315,1.184,1.198,1.775,1.806
		c0.595,0.605,1.203,1.523,1.49,1.824c0.281,0.306,1.019,0.854,1.401,1.174c0.384,0.32,1.476,1.092,1.854,1.417
		c0.063,0.053,0.146,0.087,0.224,0.126c4.687-3.658,9.309-8.2,13.229-13.843c-8.938,0.407-16.12,2.344-21.824,4.959
		C344.489,148.394,344.695,149,344.861,149.271z"/>
	<path fill="#76C1AC" d="M338.029,152.135c0.144,0.854-0.095,2.513,0.097,3.735c0.194,1.228-0.005,1.829,0.379,2.901
		c0.075,0.224,0.262,0.719,0.312,1.023c0.165,0.99,0.515,1.767,0.544,2.228c0.036,0.616,0.528,0.849,0.528,0.849
		c0.444-0.281,0.435-0.446,1.065-0.834c0.631-0.394,1.417-0.937,1.994-1.174c0.757-0.307,1.543-0.554,2.547-0.758
		c0.99-0.198,2.29-0.543,3.305-0.533c0.053,0,0.102,0.005,0.152,0.01c0.197-0.136,0.391-0.271,0.585-0.408
		c-0.185-0.067-0.359-0.121-0.476-0.159c-0.432-0.142-2.564-1.077-3.062-1.311c-0.505-0.232-2.218-1.28-2.857-1.708
		c-0.646-0.422-2.651-2.174-2.651-2.174s-0.75-0.635-0.92-1.445c-0.102-0.48-0.311-1.184-0.476-1.767
		c-0.383,0.238-0.755,0.48-1.121,0.724C337.99,151.692,338.005,151.975,338.029,152.135z"/>
</g>
<text transform="matrix(1 0 0 1 161.7739 303.4863)" fill="#808080" font-family="'DiavloLight-Regular'" font-size="32.1645">Where meditators meet</text>
</svg>
