<?xml version="1.0" encoding="utf-8"?>
<!-- Generator: Adobe Illustrator 15.1.0, SVG Export Plug-In . SVG Version: 6.00 Build 0)  -->
<!DOCTYPE svg PUBLIC "-//W3C//DTD SVG 1.1//EN" "http://www.w3.org/Graphics/SVG/1.1/DTD/svg11.dtd">
<svg version="1.1" id="Layer_1" xmlns="http://www.w3.org/2000/svg" xmlns:xlink="http://www.w3.org/1999/xlink" x="0px" y="0px"
	 width="661.636px" height="389.877px" viewBox="0 0 661.636 389.877" enable-background="new 0 0 661.636 389.877"
	 xml:space="preserve">
<rect x="5.224" y="-0.159" fill="#F5EEE3" width="656.412" height="389.876"/>
<g>
	<path fill="none" d="M402.463,209.246c0-3.743-2.198-6.346-8.225-6.346c-6.511,0-8.219,3.093-8.219,8.384v2.605
		c0.407,0.16,4.313,1.14,7.244,1.14C400.104,215.03,402.463,212.912,402.463,209.246z"/>
	<path fill="none" d="M353.453,202.9c-4.886,0-7.816,1.383-7.816,1.383v21.492c0,4.315,4.887,7.326,9.772,7.326
		c4.473,0,7.812-2.443,7.812-8.142v-13.84C363.221,205.583,361.022,202.9,353.453,202.9z"/>
	<path fill="none" d="M306.151,186.942c-12.131,0-14.49,4.803-14.49,12.865v20.106c0,8.057,2.359,12.86,14.49,12.86
		c12.371,0,14.734-4.803,14.734-12.86v-20.106C320.885,191.746,318.522,186.942,306.151,186.942z"/>
	<path fill="#808080" d="M306.232,180.106c-16.038,0-23.444,7.001-23.444,18.641v22.224c0,11.642,7.407,18.643,23.444,18.643
		c16.037,0,23.524-7.001,23.524-18.644v-22.224C329.757,187.107,322.269,180.106,306.232,180.106z M320.885,219.913
		c0,8.057-2.363,12.86-14.734,12.86c-12.131,0-14.49-4.803-14.49-12.86v-20.106c0-8.062,2.359-12.865,14.49-12.865
		c12.371,0,14.734,4.803,14.734,12.865V219.913z"/>
	<path fill="#808080" d="M354.021,196.389c-4.148,0-7.734,1.46-11.558,1.46c-1.708,0-3.503-0.405-5.376-1.3v56.658
		c0,5.781,8.307,5.533,8.549,5.533v-5.371v-11.557c0-3.746-0.732-6.026-0.732-6.026s3.256,3.828,11.562,3.828
		c8.219,0,15.298-5.048,15.298-13.435v-16.278C371.765,201.27,365.418,196.389,354.021,196.389z M363.221,224.959
		c0,5.699-3.339,8.142-7.812,8.142c-4.886,0-9.772-3.011-9.772-7.326v-21.492c0,0,2.931-1.383,7.816-1.383
		c7.569,0,9.768,2.683,9.768,8.219V224.959z"/>
	<path fill="#808080" d="M395.626,232.695c-6.841,0-9.606-2.688-9.606-7.981v-4.476c2.197,1.22,5.618,1.71,8.302,1.71
		c12.372,0,16.69-5.944,16.69-12.703c0-7.734-5.619-12.857-16.608-12.857s-16.933,5.124-16.933,13.673v15.875
		c0,8.546,6.836,13.677,18.155,13.677c8.709,0,15.87-3.42,15.87-9.199c0-1.873-0.732-3.908-2.28-6.186
		C409.139,229.518,403.442,232.695,395.626,232.695z M386.02,211.284c0-5.291,1.708-8.384,8.219-8.384
		c6.026,0,8.225,2.603,8.225,6.346c0,3.666-2.358,5.784-9.199,5.784c-2.931,0-6.837-0.98-7.244-1.14V211.284z"/>
	<path fill="#808080" d="M435.596,196.389c-4.479,0-8.137,1.706-12.125,1.706c-2.853,0-5.376-1.055-6.269-1.545v38.017
		c0,4.641,8.544,4.641,8.544,4.641v-34.759c0,0,3.664-1.388,8.71-1.388c6.516,0,8.874,2.688,8.874,7.326v24.18
		c0,4.476,8.549,4.641,8.549,4.641v-30.038C451.879,199.074,443.495,196.389,435.596,196.389z"/>
	<path fill="#666666" d="M471.257,194.841c0-4.969,4.313-6.026,10.34-6.026c7.651,0,19.374,1.465,19.374,8.711
		c0,0.323,0,0.73-0.078,1.14c2.275-3.826,3.333-7.001,3.333-9.604c0-7.816-9.441-10.587-22.712-10.587
		c-13.595,0-24.744,4.153-24.744,17.913c0,24.745,34.924,11.965,34.924,25.395c0,4.803-3.581,7.409-11.479,7.409
		c-6.837,0-18.315-1.548-18.315-8.954c-2.605,3.255-3.664,6.023-3.664,8.384c0,7.572,11.314,10.91,21.979,10.91
		c15.221,0,25.968-6.269,25.968-18.724C506.182,193.943,471.257,206.723,471.257,194.841z"/>
	<path fill="#666666" d="M510.257,195.166v37.772c0,6.269,13.677,6.269,13.677,6.269v-37.774
		C523.934,195.409,511.396,195.166,510.257,195.166z"/>
	<path fill="#666666" d="M510.504,187.515c0,1.465,1.791,3.011,4.313,3.011h8.709v-7.816c0-1.22-1.79-3.093-4.235-3.093h-8.787
		V187.515z"/>
	<path fill="#666666" d="M559.348,221.296c0,7.246-4.968,8.464-8.956,8.464c-5.943,0-7.084-2.686-7.084-7.734v-13.92h8.632
		c7.491,0,7.568-9.929,7.568-9.929h-16.2v-2.603c0-7.247-13.673-6.351-13.673-6.351v35.084c0,9.606,6.429,15.308,18.642,15.308
		c12.29,0,15.468-5.619,15.468-10.174C563.744,226.262,562.031,223.821,559.348,221.296z"/>
	<path fill="#D29DC1" d="M167.749,187.922c0.454-0.427,0.992-0.784,1.931-1.038c1.293-0.354,3.204-0.913,4.153-1.247
		c0.95-0.33,1.65-0.653,2.197-0.876c0.456-0.187,1.16-0.437,1.854-0.701c0.701-0.262,0.98-0.308,1.292-0.386
		c0.313-0.073,0.233-0.492,0.245-0.861c0.007-0.371,0.08-1.174,0.054-1.715c-0.031-0.541-0.117-1.133-0.137-1.448
		c-0.016-0.315-0.26-0.587-0.495-1.198c-0.224-0.616-0.397-1.604-0.429-1.776c-0.042-0.17-0.495-0.143-0.766-0.471
		c-0.275-0.33-0.132-0.907-0.198-1.045c-0.064-0.141-0.381-0.781-0.402-1.182c-0.022-0.393-0.192-0.956-0.297-1.266
		c-0.102-0.308-0.261-0.583-0.19-0.927c0.067-0.35,0.405-0.396,0.611-0.35c0.202,0.049,0.221-0.092,0.192-0.665
		c-0.024-0.568,0.01-3.59,0.01-3.59c0.152-1.523,0.214-2.582,1.442-4.614c0.738-1.218,1.764-1.742,3.349-2.271
		c1.248-0.417,2.43-0.427,3.215-0.354c2.069,0.209,3.463,1.364,4.336,2.285c0.878,0.927,1.519,2.291,1.755,3.506
		c0.233,1.21,0.01,3.447-0.125,4.17c-0.132,0.718-0.067,0.91-0.043,1.312c0.016,0.396,0.347,0.095,0.548,0.17
		c0.205,0.075,0.332,0.269,0.32,0.64c-0.015,0.367-0.281,0.723-0.424,1.162c-0.148,0.432-0.114,0.573-0.123,0.917
		c-0.013,0.34-0.27,0.839-0.373,1.077c-0.098,0.228-0.214,0.864-0.483,1.106c-0.272,0.243-0.566,0.199-0.736,0.208
		c-0.169,0.01-0.293,0.929-0.354,1.358c-0.063,0.432-0.366,1.216-0.576,1.541c-0.211,0.328-0.211,0.866-0.211,1.412
		c0,0.539,0.01,1.846,0.055,2.132c0.042,0.281,1.46,0.723,2.069,0.861c0.609,0.143,2.033,0.691,2.695,0.888
		c0.669,0.192,2.316,0.594,3.5,0.9c1.104,0.289,2.749,0.67,3.533,0.99c3.332-3.426,7.005-6.437,10.952-9.081
		c-0.024-0.408-0.055-0.815-0.085-1.218c-0.041-0.548-0.081-1.094-0.137-1.635c-0.058-0.584-0.137-1.167-0.211-1.744
		c-0.068-0.529-0.132-1.058-0.213-1.579c-0.092-0.585-0.204-1.167-0.312-1.749c-0.094-0.505-0.184-1.014-0.293-1.519
		c-0.123-0.582-0.271-1.157-0.416-1.734c-0.121-0.493-0.239-0.99-0.374-1.482c-0.163-0.577-0.348-1.145-0.529-1.717
		c-0.15-0.476-0.295-0.961-0.46-1.434c-0.197-0.57-0.423-1.133-0.642-1.7c-0.182-0.463-0.351-0.932-0.547-1.395
		c-0.238-0.561-0.505-1.114-0.762-1.667c-0.213-0.458-0.415-0.919-0.643-1.369c-0.276-0.55-0.582-1.086-0.88-1.63
		c-0.248-0.451-0.48-0.902-0.744-1.349c-0.301-0.512-0.634-1.014-0.957-1.521c-0.301-0.468-0.586-0.943-0.905-1.409
		c-0.347-0.505-0.727-1.002-1.095-1.502c-0.335-0.454-0.651-0.915-1.006-1.361c-0.398-0.509-0.831-1.007-1.254-1.509
		c-0.364-0.43-0.71-0.869-1.092-1.295c-0.454-0.51-0.95-1.009-1.429-1.509c-0.393-0.412-0.765-0.825-1.176-1.232
		c-0.519-0.514-1.08-1.016-1.626-1.523c-0.415-0.383-0.811-0.774-1.241-1.152c-0.606-0.536-1.258-1.055-1.898-1.584
		c-0.416-0.339-0.81-0.691-1.243-1.031c-0.739-0.58-1.528-1.15-2.308-1.72c-0.376-0.276-0.728-0.558-1.116-0.832
		c-1.191-0.837-2.427-1.669-3.714-2.487c-1.098,0.796-2.141,1.592-3.152,2.387c-0.125,0.097-0.255,0.194-0.382,0.296
		c-0.947,0.752-1.852,1.504-2.726,2.254c-0.156,0.133-0.314,0.267-0.466,0.4c-0.85,0.74-1.663,1.479-2.443,2.222
		c-0.139,0.131-0.274,0.262-0.413,0.395c-0.781,0.755-1.535,1.512-2.25,2.264c-0.082,0.087-0.16,0.175-0.24,0.262
		c-0.794,0.849-1.553,1.698-2.266,2.552c-0.056,0.065-0.109,0.133-0.163,0.202c-0.722,0.871-1.407,1.739-2.046,2.612
		c-0.033,0.044-0.061,0.087-0.092,0.131c-0.654,0.9-1.27,1.8-1.841,2.702c-0.007,0.012-0.015,0.024-0.023,0.039
		c-0.573,0.902-1.105,1.812-1.599,2.724c-0.018,0.032-0.036,0.061-0.052,0.09c-0.543,1.007-1.041,2.019-1.496,3.033
		c-0.012,0.024-0.023,0.051-0.034,0.078c-0.443,0.99-0.844,1.984-1.209,2.984c-0.023,0.065-0.046,0.131-0.068,0.199
		c-0.346,0.96-0.659,1.931-0.937,2.901c-0.024,0.092-0.049,0.185-0.075,0.274c-0.268,0.953-0.503,1.909-0.71,2.875
		c-0.022,0.104-0.044,0.211-0.065,0.318c-0.199,0.951-0.373,1.909-0.517,2.872c-0.019,0.114-0.035,0.23-0.052,0.347
		c-0.14,0.96-0.256,1.931-0.349,2.904c-0.013,0.114-0.023,0.23-0.034,0.347c-0.086,0.98-0.154,1.97-0.198,2.965
		c-0.006,0.109-0.012,0.218-0.018,0.33c-0.042,1.012-0.062,2.033-0.064,3.062c-0.001,0.054-0.001,0.107-0.003,0.16
		C160.525,180.933,164.334,184.196,167.749,187.922z"/>
	<path fill="#BEDABC" d="M198.163,213.812c-0.27,0.306-0.547,0.611-0.823,0.912c-0.01,0.73-0.012,1.451,0.001,2.016
		c0.428-0.284,0.863-0.568,1.309-0.847c-0.126-0.451-0.228-0.839-0.252-1.048C198.369,214.62,198.27,214.222,198.163,213.812z"/>
	<path fill="#BEDABC" d="M204.054,206.015c0.042,0.795,0.096,1.671,0.119,2.101c0.038,0.713,0.251,2.615,0.384,3.522
		c0.046,0.291,0.124,0.626,0.211,0.963c6.664-3.054,15.054-5.315,25.497-5.796c7.457-10.732,12.756-24.808,12.738-43.143
		c-11.018,3.243-21.889,7.525-31.291,13.823c0.02,0.352,0.04,0.708,0.056,1.062C212.229,189.092,209.048,198.206,204.054,206.015z"
		/>
	<path fill="#A78E96" d="M198.163,213.812c-0.146-0.553-0.3-1.13-0.312-1.368c-0.022-0.422-0.319-1.33-0.384-1.097
		c-0.035,0.129-0.104,1.776-0.126,3.377C197.616,214.423,197.894,214.118,198.163,213.812z"/>
	<path fill="#A78E96" d="M200.745,186.579c0.06,0.024,0.125,0.048,0.171,0.073c0.705,0.334,1.352,1.293,1.7,2.021
		c0.353,0.721,0.826,2.695,1.07,3.51c0.245,0.811,0.419,3.168,0.397,3.77c-0.027,0.597-0.149,3.685-0.176,4.313
		c-0.025,0.631,0.078,3.702,0.092,4.473c0.007,0.299,0.028,0.771,0.055,1.276c4.994-7.809,8.174-16.923,7.714-27.467
		c-0.016-0.354-0.036-0.71-0.056-1.062c-0.006,0.005-0.011,0.007-0.016,0.012C207.75,180.142,204.077,183.153,200.745,186.579z"/>
	<path fill="#BEDABC" d="M164.988,208.608c-4.735-7.947-8.605-18.1-8.583-30.084c0-0.148-0.002-0.292,0-0.437
		c-9.604-6.625-20.81-11.082-32.174-14.424c-0.018,18.389,5.312,32.495,12.802,43.235c11.611,0.762,20.598,3.755,27.433,7.525
		C164.625,213,164.867,209.829,164.988,208.608z"/>
	<path fill="#BEDABC" d="M172.426,218.897c-0.496-0.578-1.001-1.184-1.51-1.81c-0.073,0.26-0.129,0.456-0.129,0.456
		s-0.089,0.359-0.213,0.834c0.615,0.466,1.2,0.937,1.766,1.407C172.36,219.527,172.391,219.231,172.426,218.897z"/>
	<path fill="#A78E96" d="M172.426,218.897c0.146-1.334,0.359-3.113,0.31-4.008c-0.058-1.174-0.13-2.542-0.245-3.292
		c-0.115-0.754-0.473-0.963-0.489-0.58c-0.015,0.379-0.18,0.844-0.255,1.643c-0.07,0.808-0.392,2.686-0.547,3.34
		c-0.085,0.359-0.196,0.771-0.284,1.087C171.424,217.713,171.93,218.319,172.426,218.897z"/>
	<path fill="#A78E96" d="M164.988,208.608c0.018-0.163,0.033-0.298,0.046-0.386c0.13-0.859,0.166-4.449,0.095-5.875
		c-0.072-1.419-0.382-4.032-0.542-4.876c-0.159-0.844,0.218-3.488,0.484-5.046c0.259-1.552,1.587-3.335,2.179-3.991
		c0.164-0.179,0.328-0.347,0.5-0.512c-3.415-3.726-7.224-6.989-11.344-9.835l0,0c-0.002,0.146,0,0.289,0,0.437
		C156.383,190.508,160.253,200.661,164.988,208.608z"/>
	<path fill="#9AD4DF" d="M148.249,239.013c-0.758-0.932-0.992-2.086-1.179-2.959c-0.19-0.876-0.026-2.111,0.208-2.552
		c0.234-0.439,1.031-1.531,1.28-1.747c0.244-0.216-0.453,0.078-0.762,0.213c-0.306,0.126-1.069,0.311-1.715,0.369
		c-0.654,0.063-1.019,0.165-1.726,0.289c-0.706,0.129-1.223,0.122-1.591,0.143c-0.368,0.02-0.869,0.243-1.099,0.287
		c-0.225,0.039-0.328,0.248-0.522,0.306c-0.197,0.073-0.636,0.075-0.868,0c-0.233-0.073-0.061-0.521-0.155-0.628
		c-0.089-0.109-0.445-0.114-0.699-0.102c-0.257,0.012-0.484-0.061-0.827-0.043c-0.339,0.022-0.622,0.095-1.135,0.116
		c-0.509,0.029-0.304-0.383-0.321-0.725c-0.016-0.34-0.957,0.262-1.294,0.334c-0.341,0.075-0.431-0.31-0.383-0.701
		c0.075-0.565,1.022-1.147,1.703-1.242c0.678-0.092,1.756-0.197,2.159-0.216c0.399-0.02,0.781-0.267,1.236-0.292
		c0.458-0.021,0.229-0.068,0.045-0.286c-0.185-0.223-0.717-1.674-0.843-1.955c-0.129-0.277,0.023-0.631,0.115-1.145
		c0.082-0.52,0.585-1.8,0.728-2.324c0.148-0.514,0.095-1.541,0.308-1.778c0.108-0.124-0.042,0.075,0.167-0.124
		c0.106-0.107,0.106-0.604,0.24-0.811c0.264-0.412,0.61-0.374,0.955-0.276c0.347,0.092,1.144,1.138,1.629,1.679
		c0.481,0.548,1.34,1.586,1.751,1.851c0.413,0.264,1.451,0.493,1.976,0.754c0.524,0.252,0.955,0.917,1.482,1.06
		c0.522,0.143,1.251-0.068,2.031-0.393c0.717-0.298,2.207-1.303,3.003-1.805c-6.036-4.466-12.064-10.167-17.113-17.411
		c-1.882-0.121-3.833-0.184-5.854-0.184c-9.409,0-20.35,1.399-33.029,4.828c10.12,15.788,32.108,28.376,53.423,30.445
		c-0.159-0.075-0.302-0.15-0.414-0.218C150.362,241.269,149.011,239.937,148.249,239.013z"/>
	<path fill="#9AD4DF" d="M142.375,224.535c-0.229,0.015-0.239,0.509-0.369,1.009c-0.124,0.5-0.13,1.108-0.081,1.334
		c0.047,0.223,0.246,1.089,0.298,1.393c0.056,0.303,0.427,0.054,0.564-0.143c0.142-0.196,0.662-1.102,0.798-1.526
		c0.126-0.422-0.857-1.739-0.857-1.739S142.602,224.525,142.375,224.535z"/>
	<path fill="#9AD4DF" d="M156.702,228.804c-0.495,0.107-1.124,0.366-1.231,0.524c-0.107,0.155,1.035,0.209,1.572,0.26
		c0.536,0.046,2.086,0.177,2.922,0.211c0.65,0.02,1.96,0.15,3.037,0.27c-1.265-0.721-2.548-1.497-3.851-2.327
		c-0.046,0.024-0.105,0.049-0.149,0.068C158.226,228.154,157.188,228.703,156.702,228.804z"/>
	<path fill="#76C1AC" d="M163.871,230.167c1.11,0.131,2.922,0.471,3.526,0.437c0.609-0.029,2.462,0.17,2.636-0.185
		c0.169-0.349,0.416-1.897,0.619-2.481c0.193-0.58,0.62-1.91,0.969-3.186c0.353-1.271,0.611-3.561,0.701-4.765
		c0.005-0.058,0.012-0.136,0.018-0.204c-0.566-0.471-1.151-0.941-1.766-1.407c-0.236,0.896-0.605,2.227-0.794,2.487
		c-0.28,0.396-1.461,1.177-2.079,1.628c-0.622,0.451-2.636,1.921-2.636,1.921l-0.809,0.577c0,0-1.315,1.019-2.277,1.448
		c-0.916,0.408-2.043,0.954-2.827,1.303c1.303,0.83,2.586,1.606,3.851,2.327C163.32,230.102,163.62,230.139,163.871,230.167z"/>
	<path fill="#76C1AC" d="M154.146,224.309c0.07-0.043,0.146-0.09,0.205-0.128c0.715-0.437,3.513-2.582,3.998-3.12
		c0.484-0.539,3.205-3.071,3.694-3.44c0.5-0.369,1.272-0.863,1.708-1.232c0.438-0.364,0.47-0.82,0.619-1.286
		c0.025-0.085,0.06-0.333,0.097-0.679c-6.835-3.77-15.822-6.764-27.433-7.525C142.081,214.142,148.109,219.843,154.146,224.309z"/>
	<path fill="#9AD4DF" d="M223.487,225.665c0.188-0.01,0.238-0.546,0.449-0.786c0.217-0.237,0.365-0.286,0.421-0.665
		c0.056-0.386,0.155-1.456,0.101-1.717c-0.053-0.267,0.158-0.653-0.031-0.609c-0.19,0.051-0.615,0.565-0.615,0.565
		s-0.65,0.718-0.742,1.14c-0.093,0.427-0.192,0.66-0.102,0.997C223.066,224.923,223.294,225.672,223.487,225.665z"/>
	<path fill="#9AD4DF" d="M214.814,222.982c0.496,0.25,1.26,0.337,1.954,0.274c0.822-0.07,1.57-0.507,2.327-0.859
		c0.75-0.357,1.759-0.638,2.04-0.677c0.288-0.049,0.858-0.529,1.166-0.684c0.306-0.163,1.536-1.684,1.805-1.924
		c0.273-0.24,0.956-0.793,1.416-0.818c0.452-0.024,0.815,0.393,0.838,0.784c0.02,0.398-0.165,0.583-0.187,0.781
		c-0.015,0.201-0.042,1.371-0.042,1.371c0,0.631,0.039,1.339,0.104,2.045c0.069,0.711,0.252,1.555,0.163,1.963
		c-0.093,0.4-0.28,0.582-0.444,0.82c-0.159,0.235,0.311-0.048,0.311-0.048s0.765-0.18,1.19-0.202
		c0.427-0.021,0.88-0.017,1.308,0.015c0.433,0.037,0.643,0.281,0.867,0.672c0.219,0.388,0.173,0.675-0.012,0.941
		c-0.183,0.265-0.337,0.104-0.744-0.078c-0.412-0.175-0.659,0.034-0.963,0.048c-0.317,0.02-0.648,0.238-1.069,0.376
		c-0.418,0.133-0.583,0.226-0.865,0.327c-0.28,0.1-0.634,0.345-0.892,0.388c-0.256,0.044-0.351,0.17-0.529,0.313
		c-0.113,0.095-0.292,0.136-0.565,0.146c-0.259,0.007-0.326,0.216-0.579,0.289c-0.256,0.068-0.454,0.078-0.705,0.092
		c-0.262,0.015-0.495,0.364-0.776,0.471c-0.28,0.1-0.37,0.073-0.861-0.043c-0.487-0.119-0.76-0.471-1.087-0.631
		c-0.319-0.15-0.38-0.087-0.889-0.235c-0.526-0.146-1.085-0.429-1.433-0.497c-0.34-0.068,0.252,0.96,0.533,1.911
		c0.277,0.956-0.205,2.096-0.421,2.817c-0.224,0.73-0.815,2.38-1.593,3.447c-0.775,1.067-1.094,1.456-2.071,2.358
		c-0.981,0.907-1.865,0.9-2.512,0.99c-0.654,0.095-1.26,0.519-2.145,1.029c-0.865,0.482-2.054,1.121-2.66,1.339
		c0.401,0.007,0.798,0.029,1.202,0.029c23.072,0,48.383-13.493,59.468-30.78c-12.683-3.428-23.624-4.828-33.033-4.828
		c-1.422,0-2.81,0.029-4.166,0.092C225.685,213.399,220.29,218.705,214.814,222.982z"/>
	<path fill="#9AD4DF" d="M212.084,226.449c-0.01-0.109-0.674-0.361-1.235-0.551c-0.227,0.155-0.455,0.32-0.684,0.478
		C211.252,226.408,212.09,226.592,212.084,226.449z"/>
	<path fill="#76C1AC" d="M205.385,214.329c0.282,0.471,1.041,0.859,1.547,1.235c0.502,0.369,1.383,1.407,2.076,2.111
		c0.693,0.708,1.402,1.78,1.74,2.132c0.326,0.356,1.188,0.997,1.635,1.373c0.449,0.376,1.724,1.276,2.169,1.657
		c0.07,0.058,0.17,0.097,0.263,0.146c5.476-4.277,10.871-9.583,15.451-16.176c-10.443,0.48-18.833,2.742-25.497,5.796
		C204.951,213.305,205.193,214.011,205.385,214.329z"/>
	<path fill="#76C1AC" d="M197.405,217.674c0.166,1-0.112,2.935,0.112,4.362c0.226,1.434-0.005,2.14,0.44,3.396
		c0.09,0.262,0.31,0.839,0.368,1.194c0.194,1.155,0.602,2.062,0.634,2.601c0.042,0.723,0.618,0.99,0.618,0.99
		c0.518-0.325,0.51-0.517,1.244-0.973c0.736-0.461,1.657-1.094,2.332-1.371c0.882-0.356,1.804-0.647,2.973-0.885
		c1.158-0.23,2.679-0.633,3.862-0.619c0.063,0,0.118,0.005,0.178,0.007c0.229-0.158,0.458-0.323,0.684-0.478
		c-0.217-0.078-0.418-0.146-0.558-0.189c-0.503-0.165-2.996-1.252-3.576-1.524c-0.585-0.276-2.589-1.499-3.336-1.999
		c-0.753-0.49-3.097-2.538-3.097-2.538s-0.878-0.75-1.075-1.691c-0.12-0.565-0.366-1.385-0.557-2.064
		c-0.445,0.279-0.88,0.563-1.309,0.847C197.355,217.155,197.373,217.487,197.405,217.674z"/>
</g>
</svg>
