<?xml version="1.0" encoding="utf-8"?>
<!-- Generator: Adobe Illustrator 15.1.0, SVG Export Plug-In . SVG Version: 6.00 Build 0)  -->
<!DOCTYPE svg PUBLIC "-//W3C//DTD SVG 1.1//EN" "http://www.w3.org/Graphics/SVG/1.1/DTD/svg11.dtd">
<svg version="1.1" id="Layer_1" xmlns="http://www.w3.org/2000/svg" xmlns:xlink="http://www.w3.org/1999/xlink" x="0px" y="0px"
	 width="661.636px" height="389.877px" viewBox="0 0 661.636 389.877" enable-background="new 0 0 661.636 389.877"
	 xml:space="preserve">
<g>
	<path fill="none" d="M398.746,181.71c0-3.745-2.198-6.346-8.222-6.346c-6.512,0-8.222,3.091-8.222,8.384v2.601
		c0.407,0.165,4.313,1.141,7.246,1.141C396.388,187.489,398.746,185.374,398.746,181.71z"/>
	<path fill="none" d="M349.737,175.364c-4.886,0-7.816,1.378-7.816,1.378v21.495c0,4.312,4.886,7.326,9.771,7.326
		c4.476,0,7.812-2.441,7.812-8.143v-13.837C359.504,178.047,357.309,175.364,349.737,175.364z"/>
	<path fill="none" d="M302.436,159.406c-12.131,0-14.49,4.804-14.49,12.862v20.106c0,8.059,2.359,12.862,14.49,12.862
		c12.371,0,14.734-4.803,14.734-12.862v-20.106C317.17,164.21,314.807,159.406,302.436,159.406z"/>
	<path fill="#808080" d="M302.517,152.565c-16.038,0-23.444,7.006-23.444,18.646v22.221c0,11.645,7.407,18.641,23.444,18.641
		c16.037,0,23.524-6.996,23.524-18.641v-22.221C326.042,159.571,318.554,152.565,302.517,152.565z M317.17,192.375
		c0,8.059-2.363,12.862-14.734,12.862c-12.131,0-14.49-4.803-14.49-12.862v-20.106c0-8.059,2.359-12.862,14.49-12.862
		c12.371,0,14.734,4.804,14.734,12.862V192.375z"/>
	<path fill="#808080" d="M350.307,168.849c-4.15,0-7.733,1.465-11.56,1.465c-1.708,0-3.5-0.408-5.373-1.301v56.656
		c0,5.783,8.304,5.535,8.547,5.535v-5.371v-11.557c0-3.746-0.733-6.025-0.733-6.025s3.256,3.822,11.562,3.822
		c8.222,0,15.301-5.045,15.301-13.43V182.36C368.051,173.733,361.701,168.849,350.307,168.849z M359.504,197.42
		c0,5.701-3.336,8.143-7.812,8.143c-4.886,0-9.771-3.014-9.771-7.326v-21.495c0,0,2.931-1.378,7.816-1.378
		c7.571,0,9.767,2.683,9.767,8.219V197.42z"/>
	<path fill="#808080" d="M391.909,205.155c-6.839,0-9.606-2.688-9.606-7.977V192.7c2.2,1.223,5.618,1.713,8.302,1.713
		c12.375,0,16.69-5.944,16.69-12.703c0-7.733-5.618-12.861-16.608-12.861c-10.989,0-16.931,5.128-16.931,13.677v15.872
		c0,8.549,6.837,13.676,18.153,13.676c8.71,0,15.873-3.414,15.873-9.199c0-1.871-0.732-3.904-2.28-6.186
		C405.422,201.981,399.726,205.155,391.909,205.155z M382.303,183.748c0-5.293,1.71-8.384,8.222-8.384
		c6.023,0,8.222,2.601,8.222,6.346c0,3.664-2.358,5.779-9.197,5.779c-2.933,0-6.839-0.976-7.246-1.141V183.748z"/>
	<path fill="#808080" d="M431.882,168.849c-4.479,0-8.14,1.707-12.127,1.707c-2.851,0-5.374-1.058-6.269-1.543v38.015
		c0,4.639,8.546,4.639,8.546,4.639v-34.759c0,0,3.663-1.383,8.709-1.383c6.514,0,8.872,2.688,8.872,7.326v24.177
		c0,4.479,8.552,4.639,8.552,4.639v-30.039C448.165,171.536,439.78,168.849,431.882,168.849z"/>
	<path fill="#666666" d="M467.543,167.3c0-4.963,4.313-6.021,10.34-6.021c7.651,0,19.373,1.465,19.373,8.709
		c0,0.325,0,0.732-0.08,1.14c2.278-3.828,3.336-7.001,3.336-9.606c0-7.812-9.441-10.582-22.712-10.582
		c-13.595,0-24.747,4.148-24.747,17.909c0,24.75,34.924,11.969,34.924,25.4c0,4.803-3.58,7.408-11.479,7.408
		c-6.836,0-18.315-1.549-18.315-8.957c-2.605,3.256-3.663,6.025-3.663,8.385c0,7.574,11.316,10.912,21.979,10.912
		c15.223,0,25.97-6.273,25.97-18.729C502.467,166.407,467.543,179.188,467.543,167.3z"/>
	<path fill="#666666" d="M506.543,167.625v37.778c0,6.264,13.675,6.264,13.675,6.264v-37.773
		C520.218,167.873,507.683,167.625,506.543,167.625z"/>
	<path fill="#666666" d="M506.787,159.974c0,1.466,1.791,3.014,4.316,3.014h8.707v-7.816c0-1.223-1.791-3.091-4.233-3.091h-8.79
		V159.974z"/>
	<path fill="#666666" d="M555.632,193.758c0,7.244-4.966,8.467-8.954,8.467c-5.944,0-7.084-2.689-7.084-7.734v-13.92h8.631
		c7.489,0,7.569-9.932,7.569-9.932h-16.2v-2.601c0-7.249-13.675-6.352-13.675-6.352v35.083c0,9.607,6.429,15.303,18.641,15.303
		c12.292,0,15.468-5.617,15.468-10.174C560.027,198.725,558.317,196.28,555.632,193.758z"/>
	<path fill="#D29DC1" d="M164.034,160.387c0.454-0.427,0.992-0.786,1.931-1.038c1.293-0.354,3.204-0.912,4.153-1.252
		c0.95-0.33,1.65-0.65,2.197-0.873c0.456-0.185,1.16-0.438,1.854-0.704c0.701-0.262,0.98-0.306,1.292-0.384
		c0.313-0.072,0.233-0.489,0.245-0.863c0.007-0.368,0.08-1.169,0.055-1.713c-0.032-0.538-0.118-1.135-0.137-1.445
		c-0.016-0.315-0.26-0.587-0.495-1.203c-0.224-0.616-0.398-1.602-0.429-1.771c-0.042-0.17-0.495-0.146-0.766-0.471
		c-0.275-0.33-0.132-0.907-0.198-1.048c-0.064-0.141-0.381-0.781-0.402-1.179c-0.022-0.394-0.192-0.961-0.297-1.267
		c-0.102-0.311-0.261-0.587-0.19-0.927c0.067-0.354,0.405-0.397,0.611-0.354c0.201,0.048,0.221-0.088,0.192-0.665
		c-0.024-0.567,0.009-3.591,0.009-3.591c0.153-1.519,0.215-2.576,1.442-4.609c0.737-1.218,1.764-1.746,3.349-2.271
		c1.248-0.417,2.43-0.432,3.215-0.358c2.069,0.213,3.463,1.367,4.336,2.289c0.878,0.922,1.519,2.291,1.755,3.504
		c0.233,1.208,0.01,3.449-0.125,4.168c-0.132,0.723-0.067,0.912-0.043,1.314c0.016,0.397,0.347,0.092,0.548,0.17
		c0.205,0.077,0.332,0.267,0.32,0.641c-0.014,0.363-0.281,0.723-0.424,1.164c-0.148,0.432-0.114,0.572-0.123,0.917
		c-0.013,0.34-0.27,0.839-0.373,1.072c-0.098,0.233-0.215,0.863-0.482,1.111c-0.273,0.237-0.566,0.198-0.736,0.208
		c-0.169,0.01-0.294,0.927-0.354,1.359c-0.063,0.432-0.366,1.213-0.576,1.537c-0.211,0.325-0.211,0.869-0.211,1.412
		c0,0.539,0.01,1.849,0.055,2.135c0.042,0.277,1.46,0.719,2.069,0.859c0.609,0.146,2.033,0.693,2.695,0.888
		c0.669,0.194,2.316,0.592,3.5,0.902c1.104,0.286,2.749,0.67,3.533,0.985c3.332-3.421,7.005-6.434,10.952-9.078
		c-0.024-0.408-0.055-0.815-0.085-1.218c-0.042-0.549-0.082-1.092-0.137-1.636c-0.058-0.587-0.137-1.164-0.211-1.746
		c-0.068-0.524-0.132-1.053-0.213-1.577c-0.092-0.587-0.204-1.164-0.312-1.746c-0.094-0.51-0.184-1.02-0.293-1.524
		c-0.123-0.582-0.271-1.154-0.416-1.731c-0.121-0.495-0.239-0.99-0.374-1.479c-0.163-0.578-0.348-1.146-0.529-1.718
		c-0.15-0.48-0.295-0.961-0.46-1.437c-0.198-0.567-0.423-1.131-0.642-1.698c-0.182-0.466-0.351-0.937-0.547-1.397
		c-0.238-0.558-0.504-1.115-0.762-1.669c-0.213-0.456-0.415-0.917-0.643-1.368c-0.276-0.548-0.582-1.087-0.88-1.63
		c-0.248-0.446-0.48-0.902-0.744-1.345c-0.301-0.514-0.634-1.014-0.957-1.523c-0.301-0.471-0.586-0.94-0.905-1.406
		c-0.347-0.51-0.727-1.005-1.095-1.504c-0.335-0.452-0.651-0.913-1.006-1.364c-0.398-0.504-0.831-1.004-1.254-1.504
		c-0.364-0.432-0.71-0.868-1.092-1.295c-0.454-0.51-0.95-1.01-1.429-1.509c-0.393-0.413-0.766-0.83-1.177-1.232
		c-0.519-0.515-1.08-1.02-1.626-1.523c-0.415-0.384-0.811-0.777-1.241-1.155c-0.606-0.534-1.258-1.058-1.898-1.582
		c-0.416-0.344-0.811-0.693-1.244-1.033c-0.739-0.582-1.528-1.149-2.308-1.718c-0.376-0.276-0.728-0.558-1.116-0.834
		c-1.191-0.835-2.427-1.669-3.714-2.484c-1.098,0.796-2.141,1.592-3.152,2.382c-0.125,0.098-0.255,0.199-0.382,0.296
		c-0.947,0.753-1.852,1.505-2.726,2.257c-0.156,0.136-0.314,0.267-0.466,0.402c-0.85,0.737-1.663,1.479-2.443,2.223
		c-0.14,0.131-0.274,0.262-0.412,0.393c-0.781,0.757-1.536,1.509-2.25,2.266c-0.083,0.088-0.16,0.175-0.24,0.258
		c-0.795,0.854-1.553,1.702-2.266,2.557c-0.056,0.063-0.109,0.131-0.163,0.199c-0.722,0.868-1.407,1.741-2.046,2.614
		c-0.033,0.044-0.061,0.088-0.092,0.132c-0.654,0.897-1.27,1.8-1.841,2.702c-0.007,0.01-0.015,0.024-0.023,0.034
		c-0.572,0.907-1.104,1.814-1.599,2.727c-0.018,0.029-0.036,0.063-0.052,0.092c-0.543,1.005-1.041,2.014-1.496,3.028
		c-0.012,0.029-0.023,0.053-0.034,0.082c-0.443,0.99-0.844,1.984-1.209,2.984c-0.023,0.062-0.046,0.131-0.068,0.198
		c-0.346,0.961-0.659,1.932-0.936,2.901c-0.024,0.093-0.05,0.18-0.076,0.272c-0.268,0.955-0.503,1.911-0.71,2.872
		c-0.022,0.106-0.044,0.213-0.065,0.32c-0.199,0.951-0.373,1.906-0.517,2.872c-0.019,0.116-0.035,0.233-0.052,0.345
		c-0.139,0.965-0.256,1.931-0.348,2.906c-0.014,0.116-0.023,0.232-0.034,0.345c-0.086,0.979-0.154,1.97-0.198,2.969
		c-0.006,0.106-0.012,0.219-0.018,0.325c-0.042,1.014-0.062,2.033-0.064,3.062c-0.001,0.054-0.001,0.111-0.003,0.165
		C156.81,153.396,160.619,156.66,164.034,160.387z"/>
	<path fill="#BEDABC" d="M194.447,186.271c-0.269,0.311-0.547,0.611-0.822,0.917c-0.01,0.728-0.012,1.45,0.001,2.014
		c0.428-0.281,0.864-0.568,1.309-0.85c-0.126-0.446-0.228-0.834-0.252-1.043C194.654,187.081,194.554,186.684,194.447,186.271z"/>
	<path fill="#BEDABC" d="M200.339,178.479c0.042,0.791,0.096,1.669,0.119,2.101c0.038,0.713,0.251,2.615,0.384,3.518
		c0.046,0.296,0.124,0.631,0.211,0.966c6.664-3.052,15.054-5.318,25.497-5.793c7.458-10.732,12.757-24.809,12.739-43.144
		c-11.017,3.241-21.889,7.525-31.291,13.818c0.02,0.354,0.04,0.708,0.056,1.062C208.513,161.556,205.333,170.668,200.339,178.479z"
		/>
	<path fill="#A78E96" d="M194.447,186.271c-0.146-0.549-0.299-1.131-0.312-1.363c-0.022-0.423-0.319-1.33-0.384-1.097
		c-0.035,0.126-0.103,1.771-0.126,3.377C193.9,186.883,194.178,186.582,194.447,186.271z"/>
	<path fill="#A78E96" d="M197.03,159.038c0.06,0.028,0.125,0.053,0.171,0.072c0.705,0.335,1.353,1.296,1.7,2.023
		c0.353,0.723,0.826,2.697,1.07,3.508c0.245,0.815,0.418,3.173,0.397,3.77c-0.027,0.602-0.149,3.688-0.176,4.313
		c-0.026,0.636,0.077,3.702,0.092,4.479c0.007,0.296,0.028,0.767,0.055,1.276c4.994-7.812,8.174-16.924,7.714-27.472
		c-0.016-0.354-0.036-0.708-0.056-1.062c-0.006,0.005-0.011,0.01-0.016,0.015C204.035,152.604,200.362,155.617,197.03,159.038z"/>
	<path fill="#BEDABC" d="M161.273,181.07c-4.736-7.947-8.605-18.098-8.583-30.087c0-0.146-0.002-0.286,0-0.432
		c-9.603-6.628-20.81-11.082-32.174-14.425c-0.018,18.389,5.312,32.493,12.802,43.235c11.61,0.762,20.598,3.755,27.433,7.521
		C160.91,185.461,161.151,182.288,161.273,181.07z"/>
	<path fill="#BEDABC" d="M168.711,191.356c-0.496-0.573-1.002-1.18-1.51-1.806c-0.073,0.258-0.129,0.452-0.129,0.452
		s-0.089,0.358-0.213,0.834c0.615,0.466,1.2,0.937,1.766,1.407C168.645,191.991,168.676,191.69,168.711,191.356z"/>
	<path fill="#A78E96" d="M168.711,191.356c0.146-1.33,0.359-3.11,0.309-4.003c-0.058-1.175-0.13-2.543-0.245-3.295
		s-0.473-0.96-0.489-0.582c-0.015,0.384-0.18,0.845-0.255,1.645c-0.07,0.806-0.392,2.688-0.547,3.339
		c-0.085,0.358-0.196,0.775-0.284,1.091C167.709,190.177,168.215,190.783,168.711,191.356z"/>
	<path fill="#A78E96" d="M161.273,181.07c0.018-0.16,0.033-0.301,0.046-0.384c0.13-0.863,0.166-4.454,0.095-5.875
		c-0.072-1.422-0.382-4.032-0.542-4.881c-0.159-0.84,0.219-3.489,0.484-5.042c0.258-1.552,1.586-3.338,2.178-3.993
		c0.164-0.179,0.328-0.349,0.5-0.509c-3.415-3.727-7.224-6.991-11.344-9.835l0,0c-0.002,0.146,0,0.286,0,0.432
		C152.668,162.973,156.537,173.123,161.273,181.07z"/>
	<path fill="#9AD4DF" d="M144.534,211.477c-0.758-0.932-0.992-2.086-1.179-2.959c-0.19-0.879-0.025-2.111,0.209-2.553
		c0.234-0.441,1.031-1.533,1.28-1.746c0.244-0.219-0.453,0.072-0.762,0.207c-0.306,0.131-1.069,0.316-1.715,0.375
		c-0.654,0.062-1.019,0.164-1.726,0.285c-0.706,0.127-1.223,0.121-1.591,0.146c-0.368,0.014-0.869,0.242-1.099,0.285
		c-0.224,0.039-0.328,0.244-0.523,0.307c-0.196,0.072-0.635,0.072-0.867,0c-0.233-0.072-0.061-0.523-0.155-0.631
		c-0.09-0.107-0.445-0.117-0.699-0.102c-0.257,0.014-0.484-0.059-0.827-0.045c-0.339,0.02-0.622,0.098-1.135,0.117
		c-0.509,0.029-0.305-0.383-0.321-0.723c-0.016-0.34-0.957,0.262-1.294,0.33c-0.341,0.078-0.431-0.307-0.383-0.699
		c0.075-0.562,1.022-1.145,1.703-1.242c0.678-0.092,1.756-0.193,2.159-0.219c0.399-0.014,0.781-0.262,1.236-0.291
		c0.458-0.02,0.229-0.062,0.045-0.285c-0.185-0.219-0.717-1.674-0.843-1.951c-0.128-0.277,0.023-0.631,0.115-1.145
		c0.083-0.523,0.586-1.801,0.728-2.324c0.148-0.514,0.095-1.543,0.308-1.781c0.108-0.121-0.041,0.078,0.167-0.121
		c0.106-0.111,0.106-0.605,0.24-0.811c0.264-0.412,0.61-0.373,0.955-0.275c0.347,0.092,1.144,1.135,1.629,1.678
		c0.481,0.543,1.34,1.586,1.751,1.85c0.413,0.266,1.451,0.494,1.976,0.752c0.524,0.256,0.955,0.922,1.482,1.062
		c0.522,0.145,1.251-0.068,2.031-0.395c0.717-0.295,2.207-1.299,3.003-1.805c-6.036-4.462-12.064-10.168-17.113-17.408
		c-1.882-0.121-3.833-0.189-5.854-0.189c-9.409,0-20.35,1.402-33.029,4.828c10.12,15.789,32.108,28.378,53.423,30.451
		c-0.159-0.078-0.302-0.15-0.414-0.219C146.647,213.733,145.295,212.399,144.534,211.477z"/>
	<path fill="#9AD4DF" d="M138.659,196.999c-0.229,0.01-0.239,0.504-0.369,1.01c-0.124,0.5-0.13,1.105-0.081,1.334
		c0.047,0.223,0.246,1.086,0.298,1.387c0.056,0.307,0.427,0.055,0.564-0.141c0.142-0.193,0.662-1.1,0.798-1.523
		c0.126-0.426-0.858-1.74-0.858-1.74S138.886,196.989,138.659,196.999z"/>
	<path fill="#9AD4DF" d="M152.987,201.268c-0.495,0.107-1.125,0.365-1.231,0.523c-0.107,0.156,1.035,0.209,1.572,0.258
		c0.536,0.049,2.086,0.18,2.922,0.209c0.65,0.023,1.96,0.154,3.037,0.271c-1.265-0.719-2.548-1.5-3.851-2.324
		c-0.046,0.02-0.105,0.049-0.149,0.068C154.51,200.618,153.474,201.167,152.987,201.268z"/>
	<path fill="#76C1AC" d="M160.156,202.627c1.11,0.135,2.922,0.471,3.526,0.441c0.609-0.029,2.462,0.164,2.636-0.186
		c0.169-0.354,0.416-1.896,0.619-2.482c0.193-0.578,0.62-1.912,0.969-3.189c0.353-1.266,0.611-3.555,0.701-4.759
		c0.005-0.058,0.012-0.141,0.018-0.208c-0.566-0.471-1.151-0.941-1.766-1.407c-0.236,0.897-0.605,2.232-0.794,2.49
		c-0.28,0.396-1.461,1.178-2.079,1.629c-0.622,0.447-2.636,1.922-2.636,1.922l-0.809,0.578c0,0-1.315,1.018-2.277,1.445
		c-0.916,0.408-2.043,0.955-2.827,1.305c1.303,0.824,2.586,1.605,3.851,2.324C159.605,202.563,159.904,202.598,160.156,202.627z"/>
	<path fill="#76C1AC" d="M150.43,196.77c0.07-0.043,0.146-0.092,0.205-0.125c0.716-0.441,3.513-2.582,3.998-3.121
		c0.484-0.537,3.205-3.075,3.694-3.444c0.5-0.364,1.272-0.863,1.708-1.228c0.438-0.364,0.47-0.825,0.619-1.291
		c0.025-0.082,0.06-0.329,0.097-0.679c-6.835-3.766-15.822-6.759-27.433-7.521C138.366,186.602,144.395,192.308,150.43,196.77z"/>
	<path fill="#9AD4DF" d="M219.772,198.124c0.188-0.004,0.238-0.543,0.449-0.779c0.217-0.244,0.365-0.287,0.421-0.67
		c0.056-0.385,0.155-1.457,0.101-1.719c-0.053-0.262,0.158-0.65-0.031-0.605c-0.19,0.049-0.615,0.566-0.615,0.566
		s-0.65,0.715-0.742,1.141c-0.093,0.422-0.192,0.656-0.102,0.994C219.351,197.387,219.579,198.133,219.772,198.124z"/>
	<path fill="#9AD4DF" d="M211.099,195.442c0.496,0.252,1.26,0.34,1.954,0.275c0.822-0.066,1.57-0.504,2.327-0.857
		c0.75-0.355,1.759-0.637,2.04-0.68c0.288-0.045,0.857-0.529,1.166-0.684c0.306-0.16,1.536-1.684,1.805-1.922
		c0.273-0.242,0.956-0.791,1.416-0.815c0.453-0.023,0.815,0.389,0.838,0.781c0.02,0.398-0.165,0.583-0.187,0.781
		c-0.015,0.199-0.042,1.373-0.042,1.373c0,0.631,0.039,1.336,0.104,2.043c0.069,0.713,0.252,1.559,0.163,1.961
		c-0.093,0.402-0.28,0.586-0.444,0.824c-0.159,0.232,0.311-0.049,0.311-0.049s0.765-0.18,1.19-0.203
		c0.427-0.02,0.88-0.014,1.308,0.014c0.433,0.039,0.643,0.283,0.867,0.67c0.219,0.393,0.173,0.68-0.012,0.947
		c-0.183,0.262-0.337,0.102-0.744-0.078c-0.413-0.18-0.659,0.033-0.963,0.049c-0.317,0.02-0.648,0.236-1.069,0.373
		c-0.418,0.137-0.583,0.229-0.865,0.33c-0.28,0.098-0.634,0.344-0.892,0.389c-0.256,0.043-0.351,0.17-0.529,0.311
		c-0.113,0.096-0.292,0.135-0.565,0.145c-0.259,0.01-0.326,0.219-0.579,0.291c-0.256,0.068-0.454,0.074-0.705,0.092
		c-0.262,0.016-0.495,0.365-0.776,0.467c-0.28,0.102-0.37,0.078-0.861-0.039c-0.486-0.121-0.759-0.471-1.086-0.631
		c-0.319-0.15-0.38-0.092-0.889-0.238c-0.526-0.145-1.086-0.426-1.433-0.494c-0.34-0.068,0.252,0.955,0.532,1.906
		c0.278,0.961-0.205,2.096-0.421,2.82c-0.223,0.727-0.815,2.381-1.592,3.449c-0.775,1.066-1.094,1.455-2.071,2.357
		c-0.981,0.908-1.865,0.898-2.512,0.99c-0.654,0.092-1.26,0.52-2.145,1.029c-0.865,0.479-2.054,1.115-2.66,1.338
		c0.401,0.006,0.798,0.029,1.202,0.029c23.072,0,48.383-13.492,59.468-30.785c-12.683-3.426-23.624-4.828-33.033-4.828
		c-1.423,0-2.811,0.034-4.167,0.098C221.97,185.858,216.575,191.167,211.099,195.442z"/>
	<path fill="#9AD4DF" d="M208.369,198.911c-0.01-0.107-0.674-0.359-1.235-0.553c-0.227,0.16-0.455,0.324-0.684,0.48
		C207.537,198.872,208.375,199.055,208.369,198.911z"/>
	<path fill="#76C1AC" d="M201.669,186.79c0.282,0.471,1.041,0.859,1.547,1.237c0.502,0.369,1.382,1.402,2.077,2.111
		c0.692,0.708,1.402,1.775,1.739,2.13c0.326,0.353,1.188,1,1.635,1.373c0.449,0.373,1.724,1.275,2.169,1.66
		c0.07,0.057,0.17,0.096,0.263,0.141c5.476-4.275,10.871-9.583,15.451-16.171c-10.442,0.475-18.833,2.741-25.497,5.793
		C201.235,185.767,201.478,186.476,201.669,186.79z"/>
	<path fill="#76C1AC" d="M193.689,190.139c0.166,0.994-0.112,2.934,0.111,4.362c0.226,1.432-0.005,2.139,0.44,3.396
		c0.09,0.256,0.31,0.838,0.368,1.193c0.194,1.154,0.602,2.062,0.634,2.596c0.042,0.723,0.618,0.994,0.618,0.994
		c0.518-0.324,0.51-0.52,1.244-0.975c0.736-0.461,1.657-1.092,2.332-1.373c0.882-0.355,1.804-0.646,2.973-0.883
		c1.158-0.229,2.679-0.631,3.862-0.621c0.063,0,0.118,0.004,0.178,0.01c0.229-0.156,0.458-0.32,0.684-0.48
		c-0.217-0.074-0.418-0.141-0.558-0.186c-0.503-0.164-2.996-1.252-3.576-1.527c-0.586-0.271-2.589-1.494-3.337-1.994
		c-0.753-0.496-3.097-2.538-3.097-2.538s-0.878-0.752-1.075-1.693c-0.12-0.563-0.366-1.383-0.557-2.067
		c-0.445,0.281-0.88,0.568-1.309,0.85C193.64,189.619,193.658,189.949,193.689,190.139z"/>
</g>
<text transform="matrix(1 0 0 1 108.6162 275.2197)" fill="#808080" font-family="'DiavloLight-Regular'" font-size="43.0934">Where meditators meet</text>
</svg>
