<?xml version="1.0" encoding="utf-8"?>
<!-- Generator: Adobe Illustrator 15.1.0, SVG Export Plug-In . SVG Version: 6.00 Build 0)  -->
<!DOCTYPE svg PUBLIC "-//W3C//DTD SVG 1.1//EN" "http://www.w3.org/Graphics/SVG/1.1/DTD/svg11.dtd">
<svg version="1.1" id="Layer_1" xmlns="http://www.w3.org/2000/svg" xmlns:xlink="http://www.w3.org/1999/xlink" x="0px" y="0px"
	 width="661.636px" height="389.877px" viewBox="0 0 661.636 389.877" enable-background="new 0 0 661.636 389.877"
	 xml:space="preserve">
<rect x="5.224" y="-0.914" fill="#F5EEE3" width="656.412" height="389.875"/>
<g>
	<path fill="#D29DC1" d="M305.251,195.544c0.755-0.708,1.647-1.305,3.208-1.728c2.152-0.587,5.325-1.514,6.904-2.082
		c1.582-0.546,2.739-1.077,3.651-1.451c0.757-0.306,1.924-0.723,3.081-1.165c1.167-0.437,1.627-0.509,2.145-0.638
		c0.521-0.124,0.388-0.823,0.407-1.432c0.01-0.618,0.136-1.958,0.09-2.855c-0.048-0.898-0.194-1.883-0.223-2.402
		c-0.029-0.521-0.432-0.975-0.825-1.997c-0.374-1.021-0.665-2.661-0.716-2.942c-0.068-0.287-0.825-0.245-1.271-0.786
		c-0.456-0.543-0.218-1.504-0.328-1.742c-0.104-0.233-0.631-1.291-0.665-1.956c-0.042-0.66-0.32-1.594-0.498-2.105
		c-0.175-0.515-0.432-0.973-0.318-1.538c0.109-0.587,0.669-0.665,1.019-0.587c0.333,0.078,0.361-0.15,0.318-1.101
		c-0.046-0.946,0.015-5.968,0.015-5.968c0.252-2.533,0.356-4.284,2.394-7.666c1.226-2.028,2.936-2.897,5.568-3.775
		c2.077-0.689,4.039-0.708,5.338-0.587c3.444,0.349,5.759,2.266,7.21,3.796c1.46,1.536,2.522,3.801,2.921,5.825
		c0.388,2.014,0.015,5.73-0.209,6.929c-0.224,1.193-0.116,1.514-0.077,2.183c0.023,0.655,0.577,0.15,0.916,0.281
		c0.335,0.126,0.544,0.444,0.529,1.065c-0.024,0.609-0.471,1.201-0.708,1.929c-0.243,0.718-0.18,0.956-0.204,1.526
		c-0.015,0.563-0.441,1.395-0.611,1.788c-0.165,0.381-0.364,1.436-0.806,1.844c-0.451,0.393-0.941,0.325-1.223,0.34
		c-0.281,0.019-0.489,1.545-0.592,2.261c-0.106,0.713-0.611,2.019-0.956,2.562c-0.354,0.543-0.354,1.441-0.354,2.341
		c0,0.895,0.02,3.071,0.092,3.549c0.073,0.466,2.426,1.196,3.44,1.429c1.009,0.24,3.377,1.152,4.478,1.473
		c1.116,0.325,3.853,0.99,5.817,1.499c1.835,0.478,4.566,1.111,5.871,1.643c5.536-5.689,11.64-10.696,18.194-15.089
		c-0.033-0.677-0.082-1.354-0.136-2.026c-0.072-0.907-0.136-1.814-0.228-2.717c-0.098-0.971-0.224-1.936-0.35-2.897
		c-0.116-0.875-0.219-1.756-0.354-2.625c-0.155-0.976-0.335-1.936-0.519-2.901c-0.155-0.844-0.311-1.691-0.49-2.533
		c-0.204-0.966-0.451-1.917-0.689-2.877c-0.203-0.82-0.397-1.642-0.625-2.46c-0.263-0.96-0.578-1.907-0.874-2.853
		c-0.252-0.796-0.49-1.597-0.767-2.387c-0.325-0.946-0.698-1.883-1.067-2.824c-0.301-0.771-0.582-1.55-0.907-2.319
		c-0.393-0.932-0.834-1.849-1.262-2.775c-0.358-0.757-0.688-1.521-1.067-2.271c-0.461-0.912-0.97-1.805-1.465-2.708
		c-0.413-0.747-0.796-1.499-1.237-2.242c-0.505-0.849-1.053-1.681-1.597-2.525c-0.495-0.779-0.965-1.569-1.494-2.343
		c-0.582-0.839-1.208-1.664-1.824-2.492c-0.553-0.759-1.082-1.521-1.669-2.266c-0.665-0.844-1.378-1.671-2.086-2.506
		c-0.607-0.716-1.18-1.443-1.811-2.154c-0.757-0.844-1.581-1.674-2.382-2.506c-0.65-0.685-1.267-1.374-1.95-2.05
		c-0.864-0.852-1.796-1.688-2.703-2.528c-0.688-0.638-1.344-1.288-2.066-1.919c-1.005-0.888-2.092-1.756-3.149-2.629
		c-0.693-0.568-1.349-1.15-2.071-1.715c-1.223-0.963-2.533-1.909-3.828-2.858c-0.626-0.458-1.213-0.924-1.858-1.382
		c-1.975-1.393-4.033-2.771-6.17-4.129c-1.822,1.322-3.557,2.642-5.24,3.962c-0.208,0.163-0.422,0.327-0.635,0.495
		c-1.57,1.247-3.079,2.497-4.529,3.746c-0.26,0.223-0.521,0.442-0.774,0.667c-1.407,1.228-2.763,2.458-4.059,3.689
		c-0.23,0.219-0.454,0.437-0.687,0.66c-1.295,1.25-2.552,2.503-3.736,3.76c-0.139,0.141-0.267,0.286-0.403,0.432
		c-1.315,1.412-2.577,2.824-3.758,4.241c-0.095,0.111-0.185,0.223-0.274,0.334c-1.204,1.446-2.339,2.897-3.399,4.348
		c-0.058,0.073-0.104,0.146-0.158,0.213c-1.082,1.494-2.11,2.991-3.059,4.49c-0.012,0.022-0.027,0.042-0.037,0.063
		c-0.948,1.504-1.836,3.016-2.661,4.529c-0.024,0.054-0.056,0.102-0.08,0.153c-0.905,1.667-1.732,3.351-2.489,5.034
		c-0.02,0.043-0.039,0.087-0.059,0.131c-0.73,1.645-1.402,3.297-2.008,4.958c-0.034,0.107-0.073,0.218-0.114,0.33
		c-0.575,1.596-1.092,3.212-1.555,4.823c-0.043,0.15-0.078,0.306-0.124,0.456c-0.441,1.584-0.839,3.173-1.182,4.772
		c-0.034,0.174-0.075,0.354-0.109,0.531c-0.328,1.579-0.616,3.168-0.859,4.771c-0.031,0.192-0.056,0.386-0.085,0.58
		c-0.233,1.596-0.427,3.202-0.582,4.823c-0.015,0.189-0.034,0.383-0.054,0.577c-0.15,1.63-0.254,3.273-0.327,4.925
		c-0.01,0.18-0.02,0.364-0.027,0.548c-0.073,1.684-0.109,3.377-0.114,5.087c-0.005,0.09-0.005,0.182-0.005,0.27
		C293.25,183.923,299.577,189.348,305.251,195.544z"/>
	<path fill="#BEDABC" d="M355.792,238.557c-0.446,0.509-0.912,1.019-1.368,1.523c-0.015,1.208-0.02,2.406,0.005,3.348
		c0.708-0.471,1.432-0.946,2.174-1.407c-0.214-0.747-0.379-1.393-0.422-1.742C356.132,239.906,355.967,239.241,355.792,238.557z"/>
	<path fill="#BEDABC" d="M365.583,225.607c0.068,1.315,0.155,2.775,0.199,3.493c0.058,1.18,0.412,4.343,0.636,5.847
		c0.077,0.485,0.208,1.048,0.35,1.602c11.076-5.07,25.021-8.836,42.366-9.631c12.392-17.831,21.198-41.223,21.169-71.688
		c-18.307,5.385-36.375,12.501-51.993,22.964c0.029,0.584,0.059,1.179,0.093,1.766C379.164,197.482,373.88,212.628,365.583,225.607z
		"/>
	<path fill="#A78E96" d="M355.792,238.557c-0.237-0.912-0.5-1.878-0.524-2.267c-0.033-0.703-0.528-2.212-0.635-1.824
		c-0.059,0.214-0.17,2.95-0.209,5.614C354.88,239.576,355.346,239.066,355.792,238.557z"/>
	<path fill="#A78E96" d="M360.081,193.305c0.102,0.041,0.204,0.083,0.286,0.121c1.17,0.556,2.247,2.152,2.824,3.355
		c0.587,1.205,1.373,4.484,1.78,5.838c0.407,1.349,0.694,5.265,0.66,6.264c-0.044,0.995-0.247,6.123-0.301,7.167
		c-0.034,1.048,0.131,6.151,0.16,7.433c0.005,0.495,0.044,1.281,0.092,2.125c8.297-12.979,13.581-28.125,12.819-45.647
		c-0.034-0.587-0.063-1.182-0.093-1.766c-0.015,0.007-0.02,0.015-0.034,0.022C371.721,182.608,365.617,187.616,360.081,193.305z"/>
	<path fill="#BEDABC" d="M300.666,229.911c-7.875-13.202-14.301-30.072-14.267-49.99c0-0.245-0.005-0.483,0-0.723
		c-15.953-11.014-34.582-18.413-53.465-23.968c-0.029,30.552,8.83,53.998,21.273,71.843c19.298,1.266,34.235,6.239,45.591,12.503
		C300.06,237.208,300.462,231.939,300.666,229.911z"/>
	<path fill="#BEDABC" d="M313.024,247.009c-0.83-0.956-1.664-1.961-2.508-3.004c-0.124,0.427-0.214,0.752-0.214,0.752
		s-0.147,0.597-0.356,1.388c1.021,0.776,1.997,1.558,2.936,2.339C312.915,248.057,312.966,247.567,313.024,247.009z"/>
	<path fill="#A78E96" d="M313.024,247.009c0.238-2.213,0.597-5.173,0.517-6.657c-0.099-1.945-0.223-4.221-0.412-5.473
		c-0.189-1.252-0.784-1.597-0.811-0.966c-0.024,0.636-0.298,1.402-0.422,2.731c-0.119,1.344-0.65,4.464-0.915,5.551
		c-0.139,0.597-0.323,1.286-0.466,1.81C311.36,245.048,312.194,246.053,313.024,247.009z"/>
	<path fill="#A78E96" d="M300.666,229.911c0.029-0.262,0.049-0.495,0.075-0.636c0.214-1.431,0.277-7.398,0.158-9.767
		c-0.119-2.358-0.64-6.7-0.905-8.103c-0.262-1.402,0.364-5.798,0.806-8.384c0.432-2.581,2.637-5.542,3.622-6.632
		c0.272-0.301,0.541-0.582,0.83-0.846c-5.674-6.196-12.001-11.621-18.852-16.346l0,0c-0.005,0.24,0,0.478,0,0.723
		C286.365,199.838,292.792,216.708,300.666,229.911z"/>
	<path fill="#9AD4DF" d="M272.851,280.438c-1.262-1.543-1.65-3.464-1.963-4.915c-0.318-1.46-0.039-3.508,0.342-4.245
		c0.393-0.728,1.72-2.542,2.132-2.901c0.4-0.359-0.752,0.131-1.269,0.35c-0.504,0.213-1.776,0.519-2.85,0.616
		c-1.082,0.106-1.688,0.281-2.865,0.48c-1.172,0.213-2.033,0.203-2.649,0.242c-0.609,0.024-1.439,0.397-1.822,0.476
		c-0.374,0.059-0.541,0.407-0.873,0.51c-0.323,0.121-1.048,0.121-1.436,0c-0.388-0.122-0.1-0.874-0.26-1.049
		c-0.148-0.184-0.74-0.193-1.162-0.174c-0.422,0.023-0.798-0.098-1.375-0.068c-0.561,0.034-1.029,0.155-1.882,0.194
		c-0.849,0.048-0.507-0.636-0.536-1.203c-0.024-0.563-1.589,0.432-2.147,0.553c-0.57,0.126-0.718-0.515-0.646-1.164
		c0.131-0.941,1.706-1.907,2.831-2.062c1.128-0.155,2.921-0.33,3.598-0.364c0.655-0.028,1.291-0.441,2.045-0.479
		c0.767-0.034,0.383-0.112,0.076-0.476c-0.304-0.369-1.191-2.785-1.395-3.251c-0.213-0.456,0.034-1.043,0.189-1.902
		c0.138-0.863,0.973-2.988,1.206-3.856c0.247-0.864,0.16-2.567,0.512-2.96c0.184-0.204-0.065,0.126,0.284-0.204
		c0.172-0.18,0.172-1.009,0.398-1.349c0.441-0.685,1.012-0.621,1.584-0.456c0.575,0.15,1.902,1.888,2.708,2.785
		c0.798,0.912,2.229,2.64,2.909,3.076c0.687,0.441,2.416,0.819,3.285,1.252c0.869,0.427,1.589,1.528,2.467,1.766
		c0.866,0.233,2.072-0.116,3.375-0.655c1.186-0.494,3.666-2.159,4.985-2.998c-10.027-7.419-20.046-16.899-28.437-28.932
		c-3.129-0.204-6.368-0.311-9.726-0.311c-15.63,0-33.815,2.329-54.887,8.024c16.819,26.234,53.354,47.161,88.773,50.596
		c-0.262-0.131-0.495-0.247-0.685-0.364C276.356,284.184,274.117,281.976,272.851,280.438z"/>
	<path fill="#9AD4DF" d="M263.083,256.382c-0.376,0.02-0.398,0.84-0.611,1.679c-0.204,0.83-0.213,1.839-0.133,2.218
		c0.08,0.369,0.412,1.805,0.492,2.31c0.095,0.5,0.711,0.087,0.939-0.238c0.238-0.324,1.102-1.834,1.327-2.532
		c0.208-0.708-1.422-2.896-1.422-2.896S263.462,256.364,263.083,256.382z"/>
	<path fill="#9AD4DF" d="M286.896,263.476c-0.825,0.175-1.873,0.606-2.047,0.868c-0.177,0.258,1.72,0.35,2.615,0.433
		c0.888,0.077,3.461,0.296,4.856,0.349c1.077,0.034,3.253,0.253,5.042,0.446c-2.096-1.193-4.236-2.488-6.397-3.861
		c-0.08,0.038-0.175,0.082-0.248,0.116C289.429,262.399,287.707,263.311,286.896,263.476z"/>
	<path fill="#76C1AC" d="M298.808,265.737c1.843,0.224,4.856,0.786,5.856,0.733c1.019-0.054,4.093,0.281,4.376-0.311
		c0.284-0.583,0.701-3.154,1.034-4.124c0.322-0.961,1.028-3.179,1.608-5.294c0.592-2.11,1.019-5.914,1.167-7.913
		c0.005-0.103,0.022-0.233,0.032-0.345c-0.939-0.781-1.914-1.562-2.936-2.339c-0.393,1.49-1.004,3.707-1.322,4.139
		c-0.461,0.655-2.428,1.955-3.452,2.698c-1.038,0.747-4.381,3.197-4.381,3.197l-1.347,0.96c0,0-2.181,1.688-3.784,2.402
		c-1.517,0.679-3.392,1.586-4.694,2.169c2.162,1.373,4.301,2.668,6.397,3.861C297.894,265.63,298.391,265.694,298.808,265.737z"/>
	<path fill="#76C1AC" d="M282.644,256.004c0.114-0.078,0.245-0.15,0.344-0.214c1.187-0.728,5.837-4.289,6.64-5.182
		c0.806-0.897,5.325-5.109,6.135-5.721c0.834-0.611,2.121-1.436,2.846-2.047c0.726-0.602,0.781-1.363,1.024-2.135
		c0.039-0.141,0.1-0.554,0.165-1.131c-11.356-6.264-26.292-11.237-45.591-12.503C262.598,239.105,272.617,248.585,282.644,256.004z"
		/>
	<path fill="#9AD4DF" d="M397.872,258.26c0.315-0.02,0.398-0.907,0.747-1.305c0.359-0.403,0.607-0.476,0.699-1.111
		s0.257-2.421,0.17-2.854c-0.098-0.441,0.262-1.086-0.054-1.009c-0.315,0.083-1.019,0.941-1.019,0.941s-1.082,1.188-1.237,1.893
		c-0.155,0.708-0.32,1.091-0.17,1.654C397.179,257.023,397.553,258.27,397.872,258.26z"/>
	<path fill="#9AD4DF" d="M383.457,253.796c0.83,0.422,2.097,0.563,3.251,0.456c1.363-0.111,2.61-0.844,3.867-1.426
		c1.242-0.588,2.921-1.063,3.392-1.131c0.476-0.068,1.417-0.873,1.936-1.131c0.505-0.267,2.553-2.794,2.999-3.197
		c0.451-0.397,1.591-1.314,2.348-1.354c0.757-0.044,1.364,0.646,1.397,1.301c0.034,0.659-0.271,0.965-0.315,1.295
		c-0.024,0.335-0.062,2.28-0.062,2.28c0,1.048,0.058,2.223,0.17,3.396c0.116,1.184,0.422,2.586,0.271,3.266
		c-0.155,0.659-0.461,0.965-0.732,1.358c-0.272,0.388,0.509-0.083,0.509-0.083s1.271-0.296,1.979-0.334
		c0.709-0.034,1.466-0.024,2.174,0.028c0.724,0.059,1.067,0.466,1.441,1.111c0.368,0.646,0.286,1.126-0.02,1.567
		c-0.306,0.437-0.562,0.175-1.237-0.126c-0.684-0.296-1.092,0.058-1.605,0.082c-0.515,0.029-1.072,0.394-1.771,0.621
		c-0.693,0.224-0.971,0.374-1.437,0.544c-0.461,0.164-1.053,0.572-1.479,0.645c-0.427,0.068-0.582,0.282-0.878,0.52
		c-0.189,0.16-0.49,0.228-0.941,0.242c-0.432,0.015-0.538,0.359-0.961,0.48c-0.432,0.112-0.752,0.126-1.169,0.155
		c-0.437,0.02-0.825,0.606-1.291,0.781c-0.461,0.165-0.616,0.121-1.436-0.072c-0.806-0.199-1.262-0.781-1.806-1.049
		c-0.528-0.252-0.63-0.146-1.475-0.393c-0.878-0.242-1.8-0.708-2.382-0.83c-0.563-0.106,0.417,1.597,0.883,3.179
		c0.466,1.591-0.34,3.479-0.694,4.682c-0.373,1.213-1.358,3.954-2.648,5.73c-1.286,1.771-1.819,2.416-3.436,3.92
		c-1.635,1.504-3.105,1.489-4.178,1.64c-1.091,0.16-2.091,0.869-3.565,1.713c-1.437,0.796-3.411,1.854-4.42,2.228
		c0.669,0.01,1.324,0.043,1.994,0.043c38.339,0,80.405-22.42,98.822-51.148c-21.076-5.696-39.251-8.024-54.889-8.024
		c-2.368,0-4.673,0.053-6.929,0.155C401.531,237.873,392.56,246.694,383.457,253.796z"/>
	<path fill="#9AD4DF" d="M378.921,259.561c-0.015-0.18-1.12-0.602-2.048-0.917c-0.378,0.262-0.757,0.533-1.14,0.79
		C377.538,259.498,378.936,259.803,378.921,259.561z"/>
	<path fill="#76C1AC" d="M367.791,239.42c0.466,0.781,1.732,1.427,2.571,2.053c0.835,0.616,2.3,2.333,3.45,3.508
		c1.154,1.179,2.333,2.959,2.896,3.542c0.533,0.592,1.965,1.654,2.717,2.28c0.737,0.621,2.862,2.12,3.6,2.751
		c0.121,0.102,0.277,0.17,0.432,0.242c9.103-7.103,18.074-15.924,25.677-26.879c-17.346,0.795-31.29,4.561-42.366,9.631
		C367.072,237.717,367.476,238.892,367.791,239.42z"/>
	<path fill="#76C1AC" d="M354.53,244.981c0.276,1.659-0.185,4.876,0.185,7.248c0.374,2.383-0.005,3.557,0.732,5.639
		c0.146,0.437,0.52,1.393,0.611,1.989c0.325,1.916,1,3.42,1.053,4.317c0.068,1.204,1.024,1.65,1.024,1.65
		c0.863-0.544,0.849-0.864,2.071-1.621c1.228-0.762,2.756-1.814,3.872-2.28c1.47-0.592,3.003-1.072,4.944-1.465
		c1.921-0.389,4.449-1.053,6.419-1.038c0.102,0,0.194,0.014,0.291,0.014c0.383-0.257,0.762-0.528,1.14-0.79
		c-0.358-0.127-0.698-0.238-0.926-0.311c-0.84-0.272-4.983-2.087-5.944-2.538c-0.975-0.456-4.304-2.494-5.546-3.313
		c-1.251-0.825-5.147-4.222-5.147-4.222s-1.455-1.242-1.785-2.809c-0.199-0.937-0.606-2.3-0.922-3.431
		c-0.742,0.461-1.466,0.937-2.174,1.407C354.443,244.117,354.482,244.666,354.53,244.981z"/>
</g>
</svg>
