<?xml version="1.0" encoding="utf-8"?>
<!-- Generator: Adobe Illustrator 15.1.0, SVG Export Plug-In . SVG Version: 6.00 Build 0)  -->
<!DOCTYPE svg PUBLIC "-//W3C//DTD SVG 1.1//EN" "http://www.w3.org/Graphics/SVG/1.1/DTD/svg11.dtd">
<svg version="1.1" id="Layer_1" xmlns="http://www.w3.org/2000/svg" xmlns:xlink="http://www.w3.org/1999/xlink" x="0px" y="0px"
	 width="661.636px" height="389.877px" viewBox="0 0 661.636 389.877" enable-background="new 0 0 661.636 389.877"
	 xml:space="preserve">
<g>
	<path fill="none" d="M303.203,262.003c0-3.732-2.192-6.327-8.195-6.327c-6.489,0-8.195,3.083-8.195,8.356v2.595
		c0.406,0.161,4.301,1.138,7.221,1.138C300.851,267.765,303.203,265.653,303.203,262.003z"/>
	<path fill="none" d="M254.355,255.676c-4.868,0-7.787,1.378-7.787,1.378v21.42c0,4.3,4.868,7.302,9.735,7.302
		c4.463,0,7.789-2.436,7.789-8.115v-13.792C264.091,258.352,261.901,255.676,254.355,255.676z"/>
	<path fill="none" d="M207.211,239.774c-12.088,0-14.44,4.785-14.44,12.82v20.037c0,8.032,2.352,12.82,14.44,12.82
		c12.333,0,14.687-4.788,14.687-12.82v-20.037C221.898,244.56,219.545,239.774,207.211,239.774z"/>
	<path fill="#808080" d="M207.294,232.956c-15.983,0-23.365,6.982-23.365,18.582v22.15c0,11.604,7.382,18.581,23.365,18.581
		s23.447-6.977,23.447-18.581v-22.15C230.741,239.938,223.277,232.956,207.294,232.956z M221.898,272.631
		c0,8.032-2.354,12.82-14.687,12.82c-12.088,0-14.44-4.788-14.44-12.82v-20.037c0-8.035,2.352-12.82,14.44-12.82
		c12.333,0,14.687,4.785,14.687,12.82V272.631z"/>
	<path fill="#808080" d="M254.924,249.187c-4.138,0-7.708,1.457-11.52,1.457c-1.704,0-3.491-0.404-5.356-1.299v56.471
		c0,5.762,8.276,5.516,8.52,5.516v-5.352v-11.523c0-3.732-0.731-6.003-0.731-6.003s3.246,3.815,11.523,3.815
		c8.194,0,15.251-5.03,15.251-13.39v-16.225C272.61,254.052,266.282,249.187,254.924,249.187z M264.091,277.661
		c0,5.679-3.326,8.115-7.789,8.115c-4.867,0-9.735-3.002-9.735-7.302v-21.42c0,0,2.919-1.378,7.787-1.378
		c7.546,0,9.736,2.676,9.736,8.192V277.661z"/>
	<path fill="#808080" d="M296.387,285.372c-6.814,0-9.574-2.679-9.574-7.956v-4.46c2.192,1.219,5.598,1.705,8.275,1.705
		c12.333,0,16.635-5.924,16.635-12.658c0-7.709-5.599-12.816-16.552-12.816c-10.955,0-16.876,5.106-16.876,13.629v15.816
		c0,8.523,6.816,13.636,18.093,13.636c8.681,0,15.821-3.41,15.821-9.171c0-1.866-0.73-3.891-2.271-6.166
		C309.855,282.208,304.178,285.372,296.387,285.372z M286.813,264.032c0-5.272,1.706-8.356,8.195-8.356
		c6.003,0,8.195,2.595,8.195,6.327c0,3.65-2.352,5.762-9.169,5.762c-2.919,0-6.814-0.977-7.221-1.138V264.032z"/>
	<path fill="#808080" d="M336.227,249.187c-4.462,0-8.113,1.703-12.088,1.703c-2.84,0-5.354-1.054-6.247-1.545v37.893
		c0,4.622,8.519,4.622,8.519,4.622v-34.642c0,0,3.651-1.38,8.679-1.38c6.492,0,8.845,2.678,8.845,7.301v24.1
		c0,4.458,8.521,4.622,8.521,4.622v-29.938C352.454,251.865,344.097,249.187,336.227,249.187z"/>
	<path fill="#666666" d="M371.77,247.642c0-4.949,4.299-6.002,10.305-6.002c7.628,0,19.307,1.46,19.307,8.683
		c0,0.321,0,0.728-0.08,1.133c2.272-3.813,3.325-6.977,3.325-9.572c0-7.79-9.412-10.55-22.634-10.55
		c-13.551,0-24.664,4.14-24.664,17.854c0,24.662,34.805,11.926,34.805,25.311c0,4.788-3.568,7.384-11.438,7.384
		c-6.814,0-18.255-1.542-18.255-8.926c-2.596,3.244-3.654,6.004-3.654,8.356c0,7.546,11.281,10.874,21.909,10.874
		c15.172,0,25.883-6.25,25.883-18.663C406.577,246.75,371.77,259.487,371.77,247.642z"/>
	<path fill="#666666" d="M410.638,247.968v37.645c0,6.247,13.629,6.247,13.629,6.247v-37.645
		C424.267,248.209,411.773,247.968,410.638,247.968z"/>
	<path fill="#666666" d="M410.881,240.342c0,1.46,1.785,3.001,4.301,3.001h8.68v-7.792c0-1.215-1.785-3.083-4.219-3.083h-8.762
		V240.342z"/>
	<path fill="#666666" d="M459.56,274.013c0,7.218-4.944,8.434-8.923,8.434c-5.922,0-7.057-2.678-7.057-7.706v-13.874h8.6
		c7.465,0,7.545-9.897,7.545-9.897H443.58v-2.598c0-7.22-13.632-6.328-13.632-6.328v34.969c0,9.574,6.409,15.256,18.58,15.256
		c12.251,0,15.417-5.603,15.417-10.143C463.945,278.96,462.24,276.527,459.56,274.013z"/>
	<path fill="#D29DC1" d="M300.4,142.333c0.507-0.477,1.109-0.877,2.157-1.161c1.443-0.393,3.577-1.017,4.637-1.396
		c1.06-0.369,1.84-0.726,2.453-0.977c0.511-0.204,1.294-0.485,2.072-0.781c0.781-0.292,1.095-0.343,1.441-0.429
		c0.35-0.083,0.261-0.553,0.275-0.962c0.006-0.415,0.087-1.315,0.06-1.917c-0.037-0.603-0.132-1.267-0.153-1.616
		c-0.019-0.351-0.29-0.655-0.553-1.34c-0.251-0.687-0.444-1.788-0.48-1.979c-0.046-0.19-0.554-0.164-0.854-0.526
		c-0.307-0.368-0.146-1.012-0.222-1.17c-0.07-0.155-0.425-0.87-0.449-1.314c-0.026-0.445-0.212-1.072-0.332-1.416
		c-0.114-0.346-0.291-0.652-0.213-1.032c0.075-0.395,0.452-0.446,0.683-0.395c0.226,0.051,0.246-0.102,0.213-0.741
		c-0.027-0.633,0.012-4.008,0.012-4.008c0.17-1.702,0.239-2.881,1.608-5.15c0.824-1.363,1.971-1.948,3.741-2.536
		c1.394-0.466,2.713-0.479,3.589-0.396c2.311,0.235,3.867,1.523,4.842,2.552c0.98,1.031,1.694,2.555,1.96,3.912
		c0.26,1.353,0.01,3.851-0.14,4.655c-0.149,0.803-0.075,1.018-0.049,1.469c0.017,0.439,0.388,0.101,0.612,0.187
		c0.228,0.086,0.369,0.299,0.358,0.717c-0.016,0.409-0.315,0.807-0.474,1.296c-0.165,0.483-0.126,0.641-0.136,1.025
		c-0.014,0.377-0.303,0.935-0.416,1.201c-0.11,0.256-0.239,0.964-0.54,1.237c-0.305,0.266-0.633,0.219-0.821,0.229
		c-0.189,0.015-0.329,1.039-0.396,1.519c-0.073,0.482-0.409,1.357-0.646,1.722c-0.234,0.365-0.234,0.968-0.234,1.573
		c0,0.602,0.01,2.065,0.06,2.386c0.05,0.312,1.63,0.803,2.311,0.958c0.682,0.162,2.271,0.775,3.011,0.99
		c0.747,0.22,2.584,0.665,3.906,1.008c1.232,0.321,3.071,0.746,3.949,1.103c3.717-3.821,7.816-7.185,12.225-10.137
		c-0.026-0.456-0.061-0.911-0.095-1.36c-0.046-0.611-0.092-1.223-0.15-1.826c-0.068-0.655-0.155-1.304-0.238-1.948
		c-0.077-0.588-0.147-1.182-0.237-1.763c-0.104-0.656-0.228-1.301-0.35-1.951c-0.106-0.566-0.203-1.135-0.327-1.7
		c-0.139-0.649-0.303-1.29-0.463-1.934c-0.137-0.553-0.268-1.103-0.418-1.653c-0.182-0.644-0.388-1.281-0.592-1.917
		c-0.167-0.536-0.327-1.075-0.512-1.604c-0.221-0.637-0.473-1.265-0.716-1.896c-0.204-0.521-0.393-1.043-0.611-1.56
		c-0.267-0.626-0.562-1.242-0.849-1.864c-0.24-0.508-0.466-1.023-0.719-1.526c-0.311-0.612-0.649-1.213-0.984-1.819
		c-0.276-0.502-0.534-1.008-0.83-1.505c-0.335-0.572-0.708-1.13-1.067-1.697c-0.34-0.524-0.655-1.053-1.014-1.574
		c-0.384-0.565-0.811-1.119-1.221-1.675c-0.373-0.509-0.729-1.021-1.12-1.522c-0.447-0.567-0.93-1.123-1.402-1.684
		c-0.405-0.48-0.794-0.968-1.221-1.446c-0.504-0.567-1.06-1.125-1.594-1.685c-0.439-0.458-0.854-0.923-1.313-1.377
		c-0.58-0.572-1.206-1.135-1.816-1.698c-0.464-0.432-0.905-0.865-1.388-1.291c-0.674-0.594-1.403-1.179-2.118-1.766
		c-0.466-0.382-0.905-0.772-1.389-1.152c-0.823-0.647-1.705-1.282-2.577-1.92c-0.421-0.308-0.814-0.622-1.246-0.929
		c-1.33-0.935-2.71-1.862-4.146-2.775c-1.228,0.889-2.391,1.776-3.52,2.662c-0.141,0.11-0.285,0.222-0.426,0.333
		c-1.058,0.839-2.069,1.677-3.044,2.517c-0.175,0.149-0.351,0.298-0.521,0.448c-0.947,0.826-1.856,1.652-2.728,2.479
		c-0.154,0.149-0.306,0.294-0.458,0.442c-0.875,0.841-1.715,1.685-2.512,2.528c-0.092,0.096-0.179,0.193-0.271,0.29
		c-0.885,0.949-1.73,1.898-2.526,2.849c-0.064,0.075-0.123,0.149-0.185,0.225c-0.804,0.972-1.569,1.945-2.284,2.921
		c-0.035,0.048-0.067,0.097-0.103,0.144c-0.73,1.004-1.418,2.009-2.055,3.016c-0.008,0.015-0.016,0.029-0.025,0.042
		c-0.64,1.012-1.233,2.025-1.787,3.044c-0.018,0.034-0.038,0.068-0.057,0.101c-0.605,1.124-1.163,2.252-1.67,3.383
		c-0.013,0.03-0.025,0.059-0.037,0.088c-0.494,1.106-0.941,2.215-1.349,3.332c-0.027,0.072-0.051,0.146-0.078,0.221
		c-0.386,1.072-0.734,2.157-1.044,3.241c-0.028,0.102-0.056,0.204-0.083,0.307c-0.299,1.063-0.565,2.132-0.794,3.205
		c-0.025,0.118-0.05,0.239-0.074,0.358c-0.222,1.06-0.416,2.13-0.578,3.206c-0.021,0.128-0.04,0.258-0.058,0.389
		c-0.156,1.072-0.285,2.152-0.388,3.241c-0.015,0.127-0.027,0.258-0.038,0.386c-0.098,1.097-0.171,2.2-0.222,3.31
		c-0.004,0.123-0.013,0.245-0.018,0.368c-0.048,1.13-0.07,2.27-0.074,3.418c-0.001,0.062-0.001,0.122-0.002,0.181
		C292.338,134.526,296.589,138.171,300.4,142.333z"/>
	<path fill="#BEDABC" d="M334.356,171.231c-0.301,0.343-0.611,0.687-0.917,1.023c-0.011,0.813-0.015,1.619,0.002,2.25
		c0.476-0.317,0.964-0.635,1.459-0.945c-0.142-0.502-0.253-0.936-0.282-1.17C334.59,172.138,334.476,171.691,334.356,171.231z"/>
	<path fill="#BEDABC" d="M340.936,162.531c0.049,0.886,0.106,1.867,0.131,2.347c0.044,0.794,0.281,2.92,0.432,3.929
		c0.049,0.326,0.137,0.702,0.235,1.076c7.44-3.409,16.81-5.935,28.466-6.47c8.324-11.979,14.243-27.695,14.224-48.166
		c-12.304,3.618-24.438,8.4-34.938,15.428c0.024,0.394,0.044,0.794,0.063,1.188C350.06,143.635,346.511,153.812,340.936,162.531z"/>
	<path fill="#A78E96" d="M334.356,171.231c-0.16-0.611-0.335-1.261-0.347-1.523c-0.024-0.471-0.356-1.483-0.43-1.224
		c-0.039,0.144-0.114,1.982-0.141,3.77C333.745,171.918,334.056,171.575,334.356,171.231z"/>
	<path fill="#A78E96" d="M337.243,140.829c0.063,0.029,0.136,0.057,0.189,0.081c0.786,0.375,1.509,1.446,1.897,2.255
		c0.395,0.808,0.922,3.012,1.193,3.922c0.276,0.906,0.471,3.538,0.446,4.208c-0.032,0.671-0.17,4.116-0.199,4.817
		c-0.026,0.705,0.088,4.132,0.104,4.995c0.007,0.331,0.029,0.857,0.061,1.425c5.575-8.719,9.124-18.896,8.612-30.668
		c-0.02-0.393-0.039-0.793-0.063-1.188c-0.005,0.007-0.01,0.012-0.017,0.017C345.06,133.644,340.96,137.008,337.243,140.829z"/>
	<path fill="#BEDABC" d="M297.321,165.425c-5.29-8.873-9.609-20.207-9.585-33.588c0-0.165-0.001-0.325,0-0.487
		c-10.72-7.396-23.234-12.371-35.922-16.103c-0.02,20.528,5.931,36.277,14.293,48.271c12.964,0.849,22.998,4.189,30.629,8.399
		C296.913,170.328,297.184,166.786,297.321,165.425z"/>
	<path fill="#BEDABC" d="M305.624,176.912c-0.556-0.643-1.118-1.319-1.686-2.02c-0.083,0.289-0.145,0.505-0.145,0.505
		s-0.099,0.403-0.239,0.931c0.688,0.521,1.342,1.048,1.972,1.573C305.552,177.616,305.583,177.286,305.624,176.912z"/>
	<path fill="#A78E96" d="M305.624,176.912c0.162-1.487,0.4-3.475,0.347-4.472c-0.068-1.31-0.147-2.838-0.277-3.677
		c-0.127-0.843-0.526-1.073-0.544-0.649c-0.016,0.424-0.201,0.941-0.284,1.835c-0.079,0.898-0.438,2.995-0.611,3.726
		c-0.094,0.401-0.218,0.865-0.316,1.217C304.505,175.593,305.068,176.269,305.624,176.912z"/>
	<path fill="#A78E96" d="M297.321,165.425c0.018-0.18,0.037-0.333,0.048-0.431c0.146-0.961,0.187-4.968,0.107-6.559
		c-0.08-1.585-0.427-4.502-0.605-5.445c-0.178-0.943,0.243-3.895,0.539-5.633c0.29-1.734,1.773-3.725,2.435-4.457
		c0.183-0.201,0.364-0.391,0.557-0.569c-3.811-4.162-8.062-7.807-12.663-10.982c-0.001,0-0.001,0-0.001,0
		c-0.001,0.162,0,0.322,0,0.487C287.712,145.218,292.031,156.552,297.321,165.425z"/>
	<path fill="#9AD4DF" d="M278.631,199.372c-0.849-1.039-1.109-2.329-1.318-3.303c-0.212-0.981-0.027-2.355,0.233-2.853
		c0.262-0.487,1.152-1.708,1.43-1.948c0.27-0.24-0.505,0.086-0.851,0.235c-0.342,0.144-1.192,0.348-1.916,0.414
		c-0.729,0.073-1.135,0.187-1.927,0.323c-0.786,0.143-1.363,0.138-1.776,0.161c-0.409,0.018-0.969,0.269-1.228,0.32
		c-0.25,0.039-0.364,0.273-0.583,0.342c-0.218,0.083-0.708,0.083-0.968,0c-0.26-0.081-0.067-0.584-0.173-0.702
		c-0.1-0.124-0.496-0.131-0.78-0.118c-0.286,0.017-0.54-0.064-0.924-0.046c-0.378,0.023-0.694,0.104-1.266,0.128
		c-0.569,0.035-0.342-0.426-0.359-0.807c-0.018-0.378-1.067,0.291-1.443,0.371c-0.383,0.084-0.482-0.346-0.431-0.782
		c0.086-0.632,1.143-1.282,1.903-1.386c0.757-0.104,1.961-0.22,2.412-0.242c0.444-0.022,0.872-0.298,1.378-0.326
		c0.512-0.022,0.256-0.073,0.051-0.319c-0.206-0.244-0.8-1.872-0.941-2.184c-0.143-0.306,0.027-0.7,0.129-1.277
		c0.092-0.581,0.654-2.009,0.812-2.592c0.165-0.579,0.104-1.724,0.343-1.989c0.121-0.135-0.043,0.087,0.187-0.135
		c0.121-0.124,0.121-0.678,0.268-0.909c0.297-0.458,0.682-0.416,1.066-0.306c0.388,0.101,1.277,1.268,1.819,1.873
		c0.538,0.611,1.496,1.771,1.956,2.065c0.461,0.297,1.621,0.552,2.205,0.841c0.586,0.286,1.069,1.028,1.656,1.188
		c0.582,0.158,1.396-0.078,2.267-0.44c0.8-0.333,2.462-1.453,3.352-2.014c-6.737-4.986-13.467-11.355-19.104-19.438
		c-2.101-0.139-4.279-0.21-6.536-0.21c-10.504,0-22.72,1.564-36.876,5.392c11.3,17.625,35.848,31.683,59.646,33.991
		c-0.18-0.084-0.338-0.167-0.463-0.242C280.991,201.888,279.481,200.405,278.631,199.372z"/>
	<path fill="#9AD4DF" d="M272.072,183.209c-0.256,0.011-0.268,0.563-0.413,1.126c-0.136,0.558-0.145,1.237-0.09,1.491
		c0.052,0.246,0.275,1.214,0.333,1.551c0.063,0.337,0.476,0.058,0.629-0.159c0.16-0.22,0.742-1.231,0.892-1.702
		c0.142-0.475-0.957-1.944-0.957-1.944S272.325,183.195,272.072,183.209z"/>
	<path fill="#9AD4DF" d="M288.068,187.976c-0.552,0.118-1.257,0.408-1.375,0.583c-0.118,0.172,1.156,0.234,1.755,0.29
		c0.598,0.051,2.329,0.198,3.263,0.233c0.727,0.023,2.188,0.171,3.391,0.303c-1.411-0.804-2.847-1.672-4.299-2.596
		c-0.054,0.024-0.118,0.054-0.169,0.078C289.769,187.249,288.613,187.864,288.068,187.976z"/>
	<path fill="#76C1AC" d="M296.073,189.494c1.237,0.149,3.263,0.526,3.936,0.49c0.681-0.035,2.749,0.191,2.941-0.206
		c0.187-0.391,0.467-2.119,0.691-2.771c0.216-0.646,0.692-2.135,1.081-3.555c0.397-1.419,0.686-3.975,0.785-5.318
		c0.005-0.068,0.013-0.155,0.019-0.231c-0.63-0.525-1.284-1.052-1.972-1.573c-0.263,1.002-0.677,2.491-0.885,2.781
		c-0.313,0.44-1.633,1.313-2.322,1.816c-0.695,0.501-2.943,2.147-2.943,2.147l-0.902,0.644c0,0-1.469,1.135-2.542,1.616
		c-1.022,0.455-2.283,1.063-3.156,1.457c1.452,0.923,2.888,1.792,4.299,2.596C295.457,189.421,295.792,189.462,296.073,189.494z"/>
	<path fill="#76C1AC" d="M285.212,182.956c0.08-0.051,0.165-0.103,0.229-0.144c0.801-0.488,3.923-2.881,4.465-3.481
		c0.541-0.603,3.58-3.433,4.123-3.844c0.558-0.41,1.42-0.966,1.909-1.377c0.488-0.402,0.523-0.913,0.688-1.435
		c0.029-0.094,0.066-0.369,0.11-0.757c-7.631-4.21-17.665-7.55-30.629-8.399C271.745,171.601,278.475,177.97,285.212,182.956z"/>
	<path fill="#9AD4DF" d="M362.631,184.469c0.211-0.011,0.267-0.609,0.502-0.875c0.243-0.271,0.408-0.321,0.471-0.746
		c0.063-0.431,0.172-1.625,0.111-1.917c-0.061-0.297,0.175-0.729-0.033-0.679c-0.214,0.056-0.687,0.633-0.687,0.633
		s-0.726,0.797-0.833,1.272c-0.102,0.475-0.213,0.731-0.111,1.111C362.162,183.64,362.415,184.476,362.631,184.469z"/>
	<path fill="#9AD4DF" d="M352.946,181.472c0.556,0.283,1.409,0.379,2.184,0.308c0.919-0.077,1.754-0.568,2.599-0.961
		c0.834-0.396,1.965-0.712,2.277-0.758c0.32-0.049,0.956-0.588,1.301-0.761c0.342-0.18,1.715-1.879,2.016-2.147
		c0.306-0.268,1.067-0.884,1.579-0.911c0.507-0.028,0.912,0.436,0.938,0.875c0.02,0.444-0.187,0.649-0.213,0.87
		c-0.015,0.224-0.044,1.533-0.044,1.533c0,0.702,0.044,1.493,0.116,2.28c0.078,0.794,0.282,1.737,0.18,2.194
		c-0.102,0.444-0.311,0.647-0.492,0.913c-0.177,0.261,0.347-0.056,0.347-0.056s0.854-0.2,1.329-0.226
		c0.476-0.023,0.98-0.018,1.459,0.021c0.482,0.039,0.715,0.313,0.968,0.746c0.245,0.436,0.193,0.757-0.015,1.054
		c-0.204,0.293-0.374,0.115-0.83-0.087c-0.461-0.197-0.732,0.041-1.077,0.057c-0.349,0.019-0.723,0.263-1.19,0.417
		c-0.467,0.15-0.653,0.252-0.964,0.364c-0.315,0.113-0.711,0.386-0.999,0.435c-0.284,0.046-0.389,0.19-0.587,0.349
		c-0.126,0.107-0.33,0.152-0.631,0.163c-0.291,0.01-0.364,0.243-0.647,0.323c-0.287,0.076-0.505,0.087-0.784,0.104
		c-0.296,0.014-0.556,0.407-0.868,0.524c-0.313,0.109-0.412,0.081-0.963-0.049c-0.544-0.133-0.847-0.524-1.213-0.702
		c-0.357-0.168-0.425-0.1-0.992-0.266c-0.588-0.161-1.211-0.476-1.602-0.556c-0.379-0.074,0.281,1.072,0.597,2.135
		c0.311,1.067-0.23,2.339-0.471,3.143c-0.25,0.816-0.912,2.659-1.778,3.851c-0.866,1.191-1.22,1.625-2.31,2.632
		c-1.099,1.015-2.084,1.004-2.807,1.104c-0.73,0.107-1.407,0.583-2.395,1.15c-0.963,0.538-2.292,1.248-2.969,1.497
		c0.448,0.007,0.89,0.029,1.341,0.029c25.759,0,54.017-15.062,66.394-34.363c-14.158-3.827-26.372-5.392-36.879-5.392
		c-1.589,0-3.137,0.035-4.651,0.104C365.086,170.773,359.06,176.699,352.946,181.472z"/>
	<path fill="#9AD4DF" d="M349.899,185.342c-0.01-0.118-0.755-0.4-1.378-0.615c-0.255,0.176-0.507,0.359-0.764,0.534
		C348.971,185.302,349.906,185.507,349.899,185.342z"/>
	<path fill="#76C1AC" d="M342.42,171.814c0.315,0.522,1.162,0.957,1.728,1.376c0.558,0.415,1.543,1.57,2.317,2.357
		c0.773,0.792,1.569,1.988,1.942,2.382c0.364,0.394,1.327,1.11,1.829,1.532c0.498,0.416,1.922,1.423,2.419,1.848
		c0.08,0.068,0.189,0.113,0.291,0.163c6.113-4.773,12.14-10.699,17.253-18.059c-11.656,0.535-21.025,3.062-28.466,6.47
		C341.936,170.67,342.207,171.458,342.42,171.814z"/>
	<path fill="#76C1AC" d="M333.512,175.547c0.185,1.115-0.126,3.277,0.124,4.871c0.253,1.602-0.007,2.389,0.493,3.79
		c0.097,0.291,0.344,0.935,0.407,1.334c0.218,1.288,0.675,2.3,0.708,2.901c0.049,0.808,0.691,1.108,0.691,1.108
		c0.578-0.365,0.57-0.58,1.391-1.089c0.819-0.513,1.849-1.219,2.601-1.529c0.984-0.399,2.013-0.722,3.321-0.987
		c1.293-0.258,2.99-0.708,4.311-0.695c0.072,0,0.131,0.007,0.199,0.01c0.257-0.174,0.509-0.358,0.764-0.534
		c-0.24-0.085-0.468-0.159-0.623-0.206c-0.563-0.186-3.344-1.402-3.993-1.707c-0.655-0.307-2.89-1.674-3.724-2.227
		c-0.842-0.552-3.46-2.836-3.46-2.836s-0.978-0.834-1.198-1.888c-0.134-0.628-0.41-1.546-0.623-2.305
		c-0.495,0.311-0.983,0.628-1.459,0.945C333.456,174.97,333.479,175.337,333.512,175.547z"/>
</g>
</svg>
